<?xml version="1.0" standalone="no"?>
<!DOCTYPE svg PUBLIC "-//W3C//DTD SVG 20010904//EN"
 "http://www.w3.org/TR/2001/REC-SVG-20010904/DTD/svg10.dtd">
<svg version="1.0" xmlns="http://www.w3.org/2000/svg"
 width="1008.000000pt" height="1008.000000pt" viewBox="0 0 1008.000000 1008.000000"
 preserveAspectRatio="xMidYMid meet">
<metadata>
Created by potrace 1.14, written by Peter Selinger 2001-2017
</metadata>
<g transform="translate(0.000000,1008.000000) scale(0.100000,-0.100000)"
fill="#000000" stroke="none">
<path d="M0 5040 l0 -5040 5040 0 5040 0 0 5040 0 5040 -5040 0 -5040 0 0
-5040z m5007 4255 c0 -8 -4 -12 -9 -9 -5 3 -6 10 -3 15 9 13 12 11 12 -6z
m-267 -15 c0 -5 -2 -10 -4 -10 -2 0 -11 -2 -19 -5 -8 -4 -14 0 -14 10 0 8 9
15 19 15 10 0 18 -4 18 -10z m76 -7 c4 -10 6 -25 5 -33 -2 -13 0 -13 8 -1 5 8
7 21 4 30 -4 14 -4 14 6 1 9 -12 14 -13 31 -2 12 7 20 8 20 2 0 -7 6 -7 20 0
16 9 19 8 13 -6 -4 -11 -2 -15 4 -11 7 5 9 -1 6 -15 -4 -19 -3 -20 6 -8 7 10
11 11 11 3 0 -7 7 -13 16 -13 10 0 14 5 10 16 -4 10 -2 13 7 7 6 -4 15 -8 19
-8 3 0 10 -4 15 -9 5 -5 3 -6 -4 -2 -7 4 -13 2 -13 -3 0 -6 2 -11 4 -11 2 0
12 -3 22 -7 13 -5 15 -3 9 7 -6 10 -4 12 8 7 9 -3 18 -1 21 6 2 7 5 4 5 -6 1
-14 5 -16 19 -8 22 12 48 -2 37 -19 -6 -10 -4 -11 6 -4 8 5 17 9 21 9 15 0 20
15 5 15 -9 0 -19 4 -22 10 -7 11 23 2 43 -13 16 -12 63 -16 56 -5 -3 4 0 8 5
8 10 0 15 -13 13 -31 -1 -3 11 -4 26 -2 22 4 24 2 12 -7 -13 -10 -12 -11 6 -7
21 4 54 -22 54 -43 0 -6 5 -10 11 -10 6 0 9 7 6 15 -4 8 -2 17 4 20 5 4 7 10
4 15 -3 5 -1 11 5 15 9 6 14 -8 11 -28 -1 -5 3 -6 8 -3 5 4 8 15 6 25 -3 14 1
18 17 13 13 -3 16 -7 8 -12 -6 -4 -13 -24 -15 -44 -3 -33 -2 -35 16 -26 13 7
19 7 19 0 0 -5 5 -10 10 -10 6 0 10 8 10 18 0 14 2 15 9 2 6 -8 7 -18 4 -24
-4 -5 -1 -6 7 -1 7 4 15 2 20 -5 5 -8 9 -7 13 4 5 11 1 16 -13 16 -11 0 -20 4
-20 10 0 6 9 6 25 0 14 -5 25 -7 25 -4 0 4 7 1 15 -6 12 -10 18 -10 30 0 11 9
18 10 29 1 8 -6 20 -10 27 -9 8 2 13 -3 11 -11 -3 -12 0 -12 12 -2 13 11 17
10 23 -5 5 -11 14 -20 21 -22 8 -1 11 2 7 8 -3 5 -3 10 1 10 12 0 74 -74 74
-88 0 -8 9 -11 25 -8 14 3 25 0 25 -5 0 -5 -5 -9 -11 -9 -18 0 19 -30 38 -30
17 -1 17 -1 0 -14 -17 -13 -17 -14 0 -21 10 -5 24 -7 31 -6 6 1 12 -4 12 -10
0 -17 13 -2 16 17 2 11 -3 14 -17 11 -14 -4 -19 0 -19 14 0 10 2 19 4 19 11 0
55 -28 51 -32 -3 -3 7 -4 22 -1 27 3 27 3 5 -8 l-22 -12 32 -21 c18 -11 36
-19 41 -18 4 1 7 -5 7 -13 0 -18 11 -19 29 -2 11 10 13 9 8 -5 -6 -17 2 -22
31 -19 6 1 12 -3 12 -9 0 -6 -4 -9 -9 -5 -5 3 -12 1 -16 -5 -4 -6 5 -10 21
-10 22 0 25 -2 14 -15 -9 -10 -9 -15 -1 -15 18 0 25 -3 39 -17 8 -7 18 -11 23
-8 5 4 9 2 9 -4 0 -5 9 -13 21 -16 16 -6 20 -13 17 -35 -2 -16 -1 -27 4 -24 4
3 8 0 8 -7 0 -8 4 -8 15 1 9 7 18 10 22 6 3 -3 1 -6 -5 -6 -7 0 -12 -7 -12
-15 0 -8 -6 -15 -12 -16 -7 0 -4 -4 7 -9 12 -5 14 -9 6 -9 -11 -1 -10 -5 5
-16 11 -8 14 -15 7 -15 -7 0 -13 -4 -13 -10 0 -5 7 -7 15 -3 9 3 15 2 13 -3
-1 -5 10 -28 26 -52 23 -33 32 -40 42 -31 18 15 18 20 0 13 -17 -6 -40 31 -32
51 3 8 0 15 -7 18 -8 2 -8 5 0 10 7 5 17 -2 24 -15 6 -12 20 -31 30 -41 10
-11 16 -24 13 -28 -3 -5 3 -6 13 -2 16 6 16 5 4 -10 -7 -9 -17 -14 -22 -12 -4
3 -3 -8 2 -25 13 -36 20 -39 16 -7 -1 15 3 22 15 22 9 0 20 4 24 8 11 10 24 9
24 -3 0 -5 -6 -10 -14 -10 -9 0 -14 -9 -13 -20 1 -11 5 -20 9 -20 4 0 8 -6 8
-14 0 -9 -7 -12 -19 -9 -11 3 -21 -2 -25 -13 -4 -10 -4 -15 0 -12 4 4 15 3 25
-3 15 -8 19 -6 19 6 0 9 5 13 10 10 6 -4 8 -11 5 -16 -4 -5 1 -9 10 -9 11 0
15 -5 12 -15 -4 -8 -2 -17 4 -20 5 -4 7 -11 4 -16 -4 -5 -1 -9 6 -9 11 0 10
15 -7 70 -7 24 -7 24 10 8 9 -10 14 -22 11 -28 -3 -5 -2 -10 4 -10 12 0 41
-57 41 -80 0 -10 -6 -23 -14 -29 -11 -10 -17 -8 -25 6 -7 12 -10 13 -11 4 0
-7 -6 -11 -13 -8 -8 3 -14 -1 -14 -8 0 -10 5 -11 19 -4 14 7 18 6 18 -5 0 -23
22 -31 36 -12 6 9 15 13 18 8 3 -6 -1 -12 -9 -16 -8 -3 -15 -10 -15 -16 0 -6
5 -8 12 -4 7 5 9 0 6 -14 -4 -15 -2 -19 8 -15 8 3 14 -1 14 -11 0 -9 -4 -16
-10 -16 -5 0 -10 -7 -10 -15 0 -18 14 -19 41 -5 11 6 19 7 19 2 0 -6 -9 -12
-21 -15 -12 -3 -19 -11 -16 -19 2 -7 0 -21 -5 -32 -7 -13 -7 -16 1 -12 7 5 11
-2 11 -16 1 -22 1 -22 15 -4 11 14 12 24 3 40 l-11 21 20 -20 c17 -17 18 -23
8 -35 -7 -8 -15 -24 -17 -35 -1 -11 -10 -25 -18 -32 -12 -10 -11 -11 10 -7
l25 6 -25 -22 c-17 -15 -19 -20 -7 -16 11 3 17 0 17 -10 0 -8 -4 -13 -8 -10
-5 3 -19 -6 -30 -19 -25 -29 -28 -39 -8 -32 8 3 18 -4 24 -18 10 -21 7 -28
-21 -57 -19 -19 -25 -29 -14 -25 10 4 24 1 31 -5 10 -10 10 -15 -3 -29 -8 -10
-19 -15 -24 -12 -6 3 -7 1 -3 -5 4 -7 3 -12 -2 -12 -6 0 -12 -7 -16 -15 -5
-13 -2 -14 17 -3 28 15 49 19 41 7 -3 -5 0 -9 7 -9 16 0 3 -13 -19 -18 -9 -2
-80 -7 -157 -10 l-140 -7 197 -5 c111 -3 201 -9 207 -15 7 -7 -92 -9 -296 -7
-216 3 -303 0 -298 -7 3 -7 -2 -11 -15 -11 -13 0 -19 4 -14 11 9 15 -165 3
-313 -22 -175 -29 -362 -108 -467 -196 -26 -22 -36 -24 -85 -18 -102 11 -271
16 -271 8 0 -5 -36 -8 -80 -8 -44 0 -80 4 -80 8 0 14 -44 -4 -71 -30 -47 -43
-96 -42 -197 5 -265 123 -512 125 -1142 7 -74 -13 -148 -27 -165 -30 l-30 -5
30 14 c17 7 107 28 202 47 95 18 170 35 168 37 -2 2 -36 -1 -75 -8 -39 -7 -82
-9 -96 -6 -25 7 -25 8 -10 31 13 20 14 23 2 19 -13 -5 -13 -1 -3 25 15 40 1
52 -25 21 l-20 -25 15 26 c12 20 13 29 4 38 -8 8 -7 11 7 11 9 0 14 5 11 11
-5 7 -13 5 -25 -6 -16 -15 -18 -14 -23 12 -4 21 0 33 16 46 22 18 22 18 -17
12 -34 -6 -38 -4 -28 8 7 7 9 16 6 19 -3 3 2 5 12 4 9 0 19 6 21 14 4 12 3 12
-5 1 -6 -8 -12 -9 -16 -3 -7 11 21 25 35 17 5 -4 6 2 2 11 -5 13 -3 15 7 9 7
-5 5 3 -6 17 -10 14 -22 24 -26 21 -5 -2 -8 1 -8 7 0 7 7 10 15 7 8 -4 17 -1
21 4 3 6 18 8 33 5 24 -5 24 -4 -4 8 -16 8 -33 12 -37 10 -4 -3 -5 2 -2 11 5
13 9 13 22 3 13 -11 14 -11 8 0 -4 7 -1 23 8 37 9 13 16 28 16 32 0 4 -5 1
-10 -7 -8 -13 -10 -13 -10 2 0 9 7 18 15 20 10 2 12 7 5 17 -7 12 -12 11 -29
-10 -18 -22 -19 -22 -18 -4 2 23 19 45 30 38 4 -2 7 0 7 6 0 5 -10 13 -22 17
-21 6 -21 7 -2 22 16 12 16 14 2 9 -10 -4 -18 -3 -18 2 0 12 26 32 33 25 3 -3
4 15 2 41 -2 29 1 42 6 34 6 -11 9 -10 15 4 3 9 14 17 23 17 10 0 12 3 4 8
-14 9 -21 67 -8 67 6 0 9 -4 7 -8 -1 -5 2 -6 8 -2 8 5 8 11 -1 21 -6 7 -15 11
-20 8 -20 -12 -7 8 29 44 20 20 37 44 37 52 0 8 7 14 16 12 12 -2 15 4 11 23
-2 14 -11 25 -18 25 -8 0 -13 9 -12 24 2 19 5 22 15 15 7 -6 17 -8 23 -4 15
10 12 32 -6 39 -9 4 -14 9 -11 12 3 3 14 0 25 -7 16 -10 23 -10 36 0 16 14 17
32 2 43 -6 4 -4 13 3 22 8 9 10 16 5 16 -4 0 -3 5 3 11 6 6 9 19 6 28 -4 13
-3 14 5 1 6 -8 8 -18 6 -22 -3 -4 0 -16 5 -25 10 -17 10 -17 11 0 0 9 6 17 13
17 8 0 7 4 -3 10 -12 8 -11 10 8 10 23 0 30 14 11 26 -6 3 -16 0 -21 -7 -8
-11 -9 -10 -5 3 3 9 1 18 -5 20 -7 3 -4 12 8 24 11 10 26 31 33 46 8 15 17 27
20 26 22 -2 30 4 24 19 -4 11 -3 14 5 9 18 -11 35 3 22 19 -8 10 -3 14 23 19
29 5 33 10 30 30 -5 22 18 43 35 32 4 -2 7 6 7 17 1 12 4 34 8 49 6 23 5 27
-10 22 -11 -4 -14 -3 -7 3 6 4 13 16 17 26 6 15 10 16 28 6 15 -8 19 -8 15 0
-4 6 -2 11 3 11 6 0 11 -6 11 -14 0 -10 8 -13 21 -11 27 5 38 15 16 15 -9 0
-18 4 -22 9 -3 6 4 8 15 6 11 -2 20 1 20 6 0 20 20 -3 21 -24 0 -12 3 -16 6
-9 2 6 8 10 12 8 12 -8 5 42 -8 58 -8 9 -11 17 -7 17 3 1 9 2 14 3 4 1 12 5
19 9 8 5 17 0 25 -13 7 -11 17 -20 22 -20 5 0 1 9 -9 20 -23 25 -13 55 13 41
10 -5 25 -17 32 -26 11 -13 10 -15 -6 -9 -15 5 -16 4 -4 -5 9 -6 19 -6 24 -1
4 4 16 6 25 3 9 -3 3 6 -14 20 -23 21 -26 27 -12 27 9 0 17 -4 17 -10 0 -5 7
-10 15 -10 8 0 15 6 15 14 0 19 43 33 48 16 3 -9 6 -9 13 1 6 10 9 11 9 2 0
-7 5 -13 11 -13 5 0 7 5 4 10 -7 11 6 13 29 4 9 -3 13 -11 9 -17 -3 -6 -1 -7
5 -3 7 4 12 16 12 27 0 11 4 18 8 15 4 -2 14 -1 21 4 10 6 8 10 -9 15 -23 7
-44 -10 -33 -29 3 -5 1 -6 -5 -3 -17 12 7 73 29 73 10 0 19 -3 19 -7 0 -13 38
-17 51 -5 9 8 10 7 5 -4 -4 -8 2 -4 14 10 17 20 21 21 16 6 -6 -16 -2 -15 19
6 16 16 34 24 50 23 14 -2 25 1 25 6 0 5 -5 9 -11 9 -8 0 -8 5 1 15 15 18 42
16 52 -5 4 -10 7 -7 8 10 0 22 2 23 11 8 5 -10 15 -18 20 -18 6 0 7 5 4 11 -4
6 0 9 11 7 12 -2 18 2 16 12 -1 10 2 9 13 -4 13 -17 15 -18 15 -3 0 9 3 16 8
16 20 -3 32 2 32 16 0 11 -5 12 -24 5 -25 -9 -36 -5 -36 14 0 6 5 4 10 -4 6
-9 10 -11 10 -3 0 7 7 10 15 7 9 -4 15 0 15 7 1 8 11 1 24 -15 13 -15 26 -24
29 -18 4 5 21 8 39 7 28 -3 36 2 46 23 17 36 16 40 -14 36 -21 -2 -23 0 -13
12 16 19 35 18 45 -3z m-63 -36 c-5 -9 -2 -8 8 0 13 10 16 10 16 -2 0 -13 -17
-20 -41 -16 -4 1 -14 -3 -21 -9 -9 -8 -14 -6 -19 5 -3 9 -2 13 4 10 6 -3 10 1
10 9 0 19 16 21 23 4 3 -8 6 -5 6 5 1 10 6 15 11 12 6 -4 7 -12 3 -18z m677
-17 c0 -5 -5 -10 -11 -10 -5 0 -7 5 -4 10 3 6 8 10 11 10 2 0 4 -4 4 -10z m40
-30 c0 -5 -5 -10 -11 -10 -5 0 -7 5 -4 10 3 6 8 10 11 10 2 0 4 -4 4 -10z
m-1105 -40 c-3 -5 -11 -10 -16 -10 -6 0 -7 5 -4 10 3 6 11 10 16 10 6 0 7 -4
4 -10z m-141 -76 c3 -8 2 -12 -4 -9 -6 3 -10 10 -10 16 0 14 7 11 14 -7z m6
-30 c0 -8 -19 -13 -24 -6 -3 5 1 9 9 9 8 0 15 -2 15 -3z m-284 -99 c-3 -9 0
-15 9 -15 8 0 15 -5 15 -10 0 -7 -6 -7 -18 -1 -13 7 -23 6 -30 -1 -7 -7 -12
-8 -12 -4 0 5 -7 3 -15 -4 -10 -9 -15 -9 -15 -1 0 6 5 11 10 11 6 0 10 7 10
15 0 8 4 15 10 15 5 0 6 -8 3 -17 -6 -16 -5 -16 10 -4 9 7 14 17 11 22 -3 5 0
9 6 9 7 0 10 -7 6 -15z m2051 -61 c-3 -3 -12 -4 -19 -1 -8 3 -5 6 6 6 11 1 17
-2 13 -5z m97 -29 c3 -8 1 -15 -4 -15 -6 0 -10 7 -10 15 0 8 2 15 4 15 2 0 6
-7 10 -15z m130 -117 c-3 -4 0 -8 7 -8 7 0 10 -3 6 -6 -12 -13 -42 16 -42 41
l-1 26 17 -23 c10 -12 15 -26 13 -30z m56 -33 c0 -5 -5 -3 -10 5 -5 8 -10 20
-10 25 0 6 5 3 10 -5 5 -8 10 -19 10 -25z m-2535 15 c3 -5 1 -10 -4 -10 -6 0
-11 5 -11 10 0 6 2 10 4 10 3 0 8 -4 11 -10z m2555 -50 c0 -5 -7 -10 -16 -10
-8 0 -12 5 -9 10 3 6 10 10 16 10 5 0 9 -4 9 -10z m6 -56 c-3 -7 3 -15 11 -19
15 -5 15 -7 1 -22 -18 -17 -42 -8 -34 13 3 8 1 14 -4 14 -6 0 -10 6 -10 14 0
9 9 14 20 13 12 -1 18 -7 16 -13z m171 -223 c12 -19 8 -31 -10 -31 -5 0 -7 6
-4 14 3 7 0 19 -6 25 -6 6 -7 11 -1 11 5 0 15 -9 21 -19z m-3103 -608 c4 -10
4 -14 0 -10 -4 4 -14 1 -22 -6 -13 -11 -14 -9 -1 11 17 26 15 26 23 5z m-34
-50 c0 -10 -4 -14 -8 -8 -4 6 -11 13 -16 18 -5 4 -2 7 7 7 10 0 17 -8 17 -17z
m3290 -7 c0 -2 -7 -6 -15 -10 -8 -3 -15 -1 -15 4 0 6 7 10 15 10 8 0 15 -2 15
-4z m-3290 -58 c0 -6 -6 -5 -15 2 -8 7 -15 14 -15 16 0 2 7 1 15 -2 8 -4 15
-11 15 -16z m2900 -163 c89 -23 134 -48 197 -107 77 -74 133 -205 132 -313 l0
-40 -16 40 c-18 44 -30 56 -49 48 -15 -6 -100 37 -139 71 -16 14 -34 26 -38
26 -5 0 -6 4 -3 9 3 5 -6 16 -19 25 -14 9 -23 21 -20 26 4 6 -1 7 -11 3 -12
-4 -15 -3 -10 5 4 7 2 13 -3 13 -6 1 -17 2 -23 3 -7 1 -12 7 -10 14 1 7 -1 11
-5 10 -14 -4 -83 23 -83 33 0 5 -3 8 -7 8 -5 -1 -11 0 -15 1 -5 1 -11 3 -15 5
-5 1 -15 5 -25 9 -9 4 -145 6 -302 4 -157 -2 -286 0 -286 4 0 9 119 53 210 79
178 49 404 59 540 24z m346 -36 c1 -21 4 -44 7 -53 7 -18 -8 -31 -18 -15 -4 5
-13 8 -21 5 -9 -3 -14 1 -14 12 0 9 -3 34 -7 55 -6 38 -5 39 23 35 26 -3 29
-7 30 -39z m-596 -106 c61 -16 130 -52 130 -66 0 -5 -6 -7 -14 -4 -75 29 -245
33 -336 8 -25 -7 -49 -14 -55 -15 -5 -1 -16 -6 -24 -11 -10 -5 -16 -4 -19 3
-4 12 -43 0 -131 -41 -29 -14 -60 -23 -69 -20 -11 5 -13 3 -7 -7 5 -8 4 -11
-3 -7 -10 7 -5 47 7 47 3 0 6 11 6 25 0 14 -4 25 -10 25 -5 0 0 7 12 15 12 9
26 14 30 13 4 -1 30 8 57 21 37 17 77 25 160 31 128 8 189 4 266 -17z m-1725
-27 c86 -20 154 -47 208 -81 55 -36 62 -62 16 -62 -17 0 -34 -4 -37 -9 -4 -5
-17 -9 -30 -8 -13 1 -26 -4 -28 -11 -3 -6 -11 -12 -19 -13 -52 -5 -89 -2 -141
9 -108 23 -282 12 -409 -28 -17 -5 -18 -4 -6 11 7 9 19 16 27 16 18 0 29 21
15 30 -7 4 13 10 45 14 32 4 63 11 69 16 6 5 22 10 35 12 14 2 30 6 35 10 16
10 105 22 170 22 52 1 60 3 57 19 -3 15 1 17 20 12 13 -4 33 -13 45 -21 12 -8
29 -14 38 -14 9 0 27 -7 40 -16 13 -9 32 -14 41 -12 12 2 3 10 -27 25 -47 23
-70 31 -80 29 -3 0 -13 5 -21 11 -50 42 -408 62 -408 23 0 -5 -10 -12 -22 -16
-12 -4 -35 -20 -51 -35 -16 -16 -33 -29 -38 -29 -6 0 -17 -7 -25 -15 -9 -8
-24 -15 -34 -15 -10 0 -22 -5 -26 -12 -4 -7 -3 -8 4 -4 7 4 12 2 12 -5 0 -7
-10 -9 -25 -7 -13 3 -22 1 -19 -4 3 -4 -2 -11 -10 -14 -8 -3 -18 -15 -22 -26
-3 -12 -11 -17 -20 -14 -9 4 -18 -4 -24 -20 -11 -28 -34 -54 -48 -54 -5 0 -9
-7 -9 -15 0 -9 6 -14 14 -11 27 11 12 -12 -17 -24 -16 -7 -29 -15 -28 -19 3
-24 -4 -33 -22 -28 -11 3 -17 1 -14 -4 8 -13 -38 -29 -52 -18 -6 5 -14 6 -18
2 -4 -4 -9 3 -13 15 -3 12 -10 19 -15 16 -6 -4 -8 3 -4 17 7 24 7 24 -10 4
-15 -18 -16 -18 -10 -2 3 10 6 23 6 29 0 6 7 7 16 4 13 -5 14 -3 6 6 -12 15
-4 68 10 68 5 0 7 4 4 9 -7 11 59 97 104 134 64 54 140 83 300 112 92 18 356
12 445 -9z m1900 -64 c-3 -3 -11 0 -18 7 -9 10 -8 11 6 5 10 -3 15 -9 12 -12z
m-145 -11 c0 -5 18 -11 40 -15 22 -3 39 -11 37 -17 -1 -6 13 -19 31 -29 45
-25 47 -27 29 -45 -14 -13 -17 -13 -31 0 -8 8 -19 15 -24 15 -6 0 -13 7 -16
16 -3 8 -11 12 -16 9 -20 -12 -360 -13 -360 -1 0 6 -5 4 -11 -4 -9 -12 -10
-11 -6 8 4 17 1 22 -16 22 -37 0 -11 11 39 16 27 3 58 9 69 14 39 17 51 18
143 19 50 1 92 -3 92 -8z m-2690 -58 c0 -21 3 -48 6 -60 5 -20 2 -23 -20 -23
-23 0 -26 4 -26 38 0 20 -3 47 -6 60 -5 19 -2 22 20 22 23 0 26 -4 26 -37z
m1696 -58 c58 -17 112 -68 120 -111 15 -91 133 -326 250 -500 86 -127 155
-201 245 -261 72 -48 246 -109 334 -117 71 -6 124 1 125 18 1 11 -3 12 -78 25
-142 26 -289 76 -337 116 -20 16 -20 16 1 10 65 -17 184 -35 239 -35 200 0
412 91 540 232 51 57 155 237 162 283 2 11 8 24 13 29 4 4 6 16 3 25 -4 13 -2
13 7 -2 6 -9 9 -21 5 -26 -3 -5 0 -13 6 -17 8 -4 9 -3 5 4 -4 7 -4 12 -1 12 9
0 40 -32 38 -39 0 -3 8 -17 18 -31 11 -14 18 -19 17 -11 -2 7 3 16 10 18 9 4
12 -5 9 -29 -2 -19 -6 -38 -9 -43 -7 -12 27 -57 36 -48 4 4 9 -2 12 -14 3 -12
11 -20 18 -17 7 3 12 -4 12 -15 0 -15 -3 -17 -13 -9 -10 8 -13 6 -13 -6 0 -9
4 -16 8 -16 5 0 17 -7 28 -15 18 -14 18 -14 -11 -15 -23 0 -26 3 -15 10 9 6
10 10 3 10 -16 0 -26 -17 -14 -24 5 -4 7 -22 4 -40 -5 -35 4 -41 34 -23 6 4
15 2 19 -4 4 -8 3 -9 -4 -5 -8 4 -16 -4 -23 -21 -6 -15 -10 -30 -9 -32 1 -2
-4 -8 -12 -12 -10 -7 -9 -9 4 -9 19 0 14 -34 -8 -61 -11 -13 -11 -18 5 -31 11
-9 23 -13 27 -10 4 4 4 2 0 -5 -4 -7 -14 -9 -24 -6 -13 5 -14 3 -5 -7 9 -9 9
-17 0 -31 -6 -10 -8 -22 -4 -26 5 -4 12 -1 17 7 7 11 9 10 8 -7 -2 -14 -7 -19
-18 -15 -12 4 -12 2 -3 -8 15 -16 -5 -40 -27 -32 -8 3 -12 1 -7 -3 4 -5 1 -15
-7 -24 -23 -26 -24 -57 -2 -53 11 2 15 -1 11 -7 -3 -6 -13 -11 -21 -11 -8 0
-14 -7 -14 -15 0 -18 11 -19 30 -2 12 10 12 9 1 -6 -8 -9 -11 -20 -8 -23 3 -4
-1 -13 -9 -21 -8 -9 -14 -25 -13 -37 3 -30 -22 -78 -38 -72 -7 3 -13 2 -13 -3
0 -5 10 -11 22 -14 18 -5 19 -8 8 -21 -7 -9 -9 -16 -5 -16 4 0 1 -7 -6 -16
-12 -14 -14 -14 -20 3 -5 14 -8 11 -16 -17 -7 -24 -7 -39 1 -49 9 -12 8 -13
-6 -8 -16 5 -16 4 -5 -15 9 -16 9 -22 0 -25 -7 -3 -13 -11 -13 -19 0 -9 5 -12
10 -9 12 7 12 3 4 -19 -3 -9 -12 -16 -19 -16 -7 0 -15 -9 -18 -20 -3 -11 -11
-20 -19 -20 -10 0 -9 3 2 11 12 8 12 10 1 7 -8 -2 -15 -12 -17 -22 -2 -13 2
-17 17 -13 25 7 24 0 -3 -25 -13 -11 -17 -17 -10 -13 6 3 12 2 12 -4 0 -5 -5
-11 -12 -13 -7 -3 2 -13 20 -23 42 -25 48 -46 19 -67 -19 -14 -22 -24 -19 -54
3 -24 7 -32 13 -23 4 7 11 10 15 6 4 -4 -1 -16 -10 -26 -10 -11 -15 -24 -12
-29 3 -5 -2 -20 -12 -33 -9 -13 -17 -33 -17 -44 1 -11 -4 -23 -10 -28 -13 -9
23 -39 39 -31 6 3 4 0 -4 -8 -8 -7 -15 -19 -16 -25 -4 -48 -2 -47 -30 -28 -14
9 -28 14 -32 11 -3 -3 0 -6 6 -6 7 0 12 -12 12 -26 0 -21 4 -25 19 -21 15 3
17 0 13 -17 -2 -11 -14 -31 -25 -43 l-20 -23 24 -1 c18 -1 19 -3 6 -6 -14 -4
-15 -8 -7 -18 9 -11 7 -12 -11 -8 -19 5 -21 3 -17 -15 4 -15 2 -22 -9 -22 -8
0 -12 -4 -9 -8 2 -4 -4 -8 -14 -9 -13 -1 -16 4 -13 18 3 10 10 16 16 12 6 -3
7 -1 3 6 -9 15 -26 5 -26 -16 0 -13 -2 -14 -17 -2 -15 12 -16 12 -10 -4 5 -12
3 -16 -5 -11 -6 4 -17 -1 -23 -10 -7 -9 -23 -19 -35 -21 -12 -2 -29 -10 -38
-17 -14 -12 -15 -9 -9 21 8 40 25 63 39 55 6 -4 5 -10 -3 -15 -8 -5 -9 -9 -3
-9 6 0 18 8 25 17 10 11 10 14 2 9 -9 -5 -13 2 -13 25 0 18 3 30 6 26 3 -3 14
2 24 11 14 11 16 20 9 34 -7 14 -6 16 6 12 8 -3 12 -10 9 -15 -3 -5 2 -9 10
-9 18 0 21 16 6 25 -5 3 -10 12 -10 18 0 8 3 7 9 -2 7 -11 11 -10 19 6 7 12 7
25 1 34 -6 10 -9 10 -9 2 0 -7 -4 -13 -8 -13 -4 0 -8 9 -8 20 0 11 4 20 8 20
5 0 7 13 6 28 -3 36 -33 39 -33 2 0 -14 -4 -27 -10 -28 -25 -9 -46 -24 -41
-29 3 -4 1 -12 -5 -19 -8 -10 -5 -11 13 -7 22 4 22 4 -2 -9 -14 -7 -34 -31
-44 -53 -11 -22 -35 -54 -53 -72 -19 -18 -32 -36 -29 -41 7 -11 -52 -55 -64
-47 -5 3 -14 -5 -21 -17 -11 -20 -11 -22 3 -10 25 21 28 0 5 -28 -12 -14 -30
-24 -39 -22 -13 2 -16 -1 -12 -12 4 -10 1 -16 -7 -16 -10 0 -10 -3 -1 -12 9
-9 8 -16 -6 -32 -16 -18 -16 -19 1 -13 11 4 17 1 17 -8 0 -8 -3 -14 -7 -14
-30 5 -41 -3 -39 -26 2 -14 6 -25 9 -25 4 0 11 0 17 0 5 0 7 8 4 18 -5 14 -4
14 4 2 6 -8 8 -18 5 -23 -3 -5 3 -6 14 -3 16 5 19 1 19 -29 0 -25 -5 -37 -18
-41 -10 -3 -18 -10 -18 -15 0 -6 5 -7 10 -4 19 12 10 -9 -17 -38 -16 -17 -22
-26 -14 -22 10 6 12 4 7 -4 -4 -7 -17 -9 -29 -6 -16 5 -18 4 -8 -3 9 -7 11
-17 5 -33 -4 -13 -7 -27 -6 -31 1 -5 -3 -8 -9 -8 -6 0 -9 6 -6 14 4 9 0 12
-13 9 -19 -5 -17 -33 2 -33 5 0 6 -5 3 -10 -3 -6 -17 -7 -29 -4 -19 5 -26 0
-37 -26 -11 -24 -19 -30 -37 -27 -15 3 -28 -3 -40 -18 -10 -12 -24 -24 -31
-26 -11 -4 -9 -10 7 -25 19 -18 20 -23 8 -39 -13 -18 -14 -18 -26 6 -7 13 -14
26 -16 28 -1 1 -13 -6 -25 -18 -36 -33 -47 -27 -44 24 3 36 0 45 -13 46 -15 1
-15 2 1 6 21 5 23 23 2 23 -25 0 -84 -59 -80 -80 2 -10 -3 -24 -10 -30 -11 -9
-16 -7 -25 9 -8 15 -8 21 0 21 6 0 8 5 4 11 -5 8 -9 7 -14 -2 -5 -6 -22 -13
-38 -13 -17 -1 -29 1 -27 3 2 2 -3 11 -12 20 -12 11 -17 13 -21 3 -6 -20 -22
-14 -23 11 l-2 22 -4 -23 c-3 -14 -12 -22 -26 -22 -22 -1 -57 -21 -57 -34 0
-4 9 -2 21 4 23 13 35 8 24 -10 -5 -8 -21 -10 -41 -7 -20 3 -34 2 -34 -4 0 -6
-5 -7 -11 -3 -8 4 -9 0 -4 -15 6 -21 -4 -25 -77 -24 -10 0 -18 -7 -18 -14 0
-8 -7 -21 -15 -30 -13 -12 -18 -13 -31 -2 -11 9 -18 9 -26 1 -17 -17 -38 -15
-38 4 0 10 -6 14 -15 10 -10 -4 -15 1 -15 14 0 11 -5 20 -11 20 -5 0 -8 4 -4
9 3 5 1 12 -5 16 -6 4 -7 12 -4 18 4 7 4 9 -1 5 -4 -4 -15 0 -24 9 -12 12 -13
17 -3 21 7 2 10 8 6 13 -9 14 -24 10 -24 -6 0 -9 -6 -15 -12 -14 -26 3 -38 -1
-36 -12 2 -6 -3 -14 -10 -16 -8 -3 -10 1 -6 11 7 19 -7 21 -24 4 -19 -19 -14
-38 11 -38 20 -1 21 -1 4 -11 -10 -6 -27 -9 -38 -6 -10 3 -19 0 -20 -6 0 -8
-2 -8 -6 1 -6 14 -33 16 -33 2 0 -5 -7 -10 -16 -10 -8 0 -12 5 -9 10 3 6 -1
10 -9 10 -8 0 -22 10 -30 22 -9 12 -16 18 -16 13 0 -6 -7 -2 -14 8 -13 17 -16
17 -39 3 -20 -14 -26 -14 -36 -3 -6 8 -7 17 -3 22 4 4 -4 5 -18 1 -14 -4 -38
-7 -53 -7 -16 1 -26 -2 -24 -7 8 -12 -29 -56 -40 -49 -6 4 -14 23 -17 42 -9
44 -34 47 -27 3 0 -5 -3 -8 -9 -8 -5 0 -10 -7 -10 -16 0 -9 -6 -14 -12 -11 -7
2 -12 12 -12 21 1 9 -4 16 -12 16 -24 0 -16 40 11 52 28 12 30 19 14 35 -8 8
-18 7 -37 -3 -23 -11 -29 -11 -44 3 -15 13 -16 19 -5 31 10 13 9 14 -3 7 -13
-7 -13 -6 -2 7 7 8 9 24 5 33 -4 13 -3 16 6 11 6 -4 11 -4 10 1 -1 4 1 16 6
26 11 26 -2 33 -24 13 -17 -16 -19 -15 -33 6 -14 20 -13 26 4 56 12 22 14 32
6 31 -26 -3 -39 1 -33 11 3 6 -1 10 -9 10 -9 0 -16 7 -16 15 0 8 0 17 0 20 0
12 -42 45 -50 40 -6 -4 -10 -2 -10 4 0 5 -9 12 -19 16 -13 4 -17 12 -14 26 4
15 0 22 -16 26 -11 3 -21 9 -21 14 0 5 -9 9 -20 9 -11 0 -19 3 -19 8 1 4 0 9
-1 12 -1 3 -3 13 -5 24 -2 10 -13 25 -25 33 -18 12 -19 17 -8 31 10 12 10 14
1 8 -7 -4 -13 -2 -13 3 0 6 12 11 28 11 18 0 23 -3 14 -9 -10 -6 -9 -10 7 -14
12 -3 24 -1 27 4 3 6 15 7 25 4 16 -5 20 -3 17 12 -2 10 -7 21 -13 25 -5 4 4
12 20 19 l30 12 -32 10 c-18 5 -33 14 -33 19 0 19 21 48 31 43 5 -4 9 -2 9 4
0 6 13 17 30 26 30 16 48 20 37 8 -4 -3 -2 -12 3 -19 8 -9 2 -19 -22 -37 -37
-29 -35 -36 13 -43 26 -4 40 -1 58 15 13 12 33 21 45 21 12 1 32 7 46 15 27
16 90 20 90 7 0 -5 7 -9 15 -9 9 0 14 6 11 12 -6 18 89 59 160 70 16 2 58 15
94 28 40 15 90 25 130 26 36 1 83 6 105 11 22 5 63 10 90 10 28 0 79 10 115
21 85 27 234 33 381 15 63 -8 115 -11 116 -8 4 9 68 7 113 -3 30 -6 94 -57 84
-67 -2 -2 9 -4 24 -3 15 0 26 6 25 13 -2 6 4 9 13 5 10 -4 17 2 21 16 3 11 9
21 13 21 4 0 7 7 6 16 0 9 5 19 12 21 8 3 10 -1 5 -12 -5 -15 -3 -16 15 -6 14
7 23 8 27 1 9 -15 25 -12 25 5 0 8 -5 15 -11 15 -8 0 -8 5 1 15 10 12 10 15
-4 15 -15 0 -22 21 -16 45 11 39 5 77 -14 91 -11 8 -15 14 -8 14 6 0 12 5 12
11 0 6 -8 8 -17 5 -10 -3 -31 -2 -48 3 -16 5 -24 10 -17 10 19 1 14 19 -8 26
-11 4 -17 11 -14 17 8 13 -14 28 -42 28 -11 0 -29 9 -38 19 -10 11 -29 21 -42
23 -14 2 -23 7 -22 11 4 11 -54 36 -65 30 -5 -3 -5 -12 -2 -22 4 -9 9 -27 12
-41 2 -14 11 -32 19 -41 11 -13 12 -19 4 -24 -9 -6 -9 -9 -1 -15 19 -11 -26
-61 -52 -56 -51 9 -77 19 -77 27 0 5 -13 9 -30 9 -35 0 -40 -19 -11 -40 18
-12 20 -37 2 -26 -3 3 -7 -4 -7 -14 0 -10 6 -16 13 -13 8 3 13 -3 13 -15 0
-15 -5 -18 -25 -14 -14 2 -33 -2 -43 -9 -14 -11 -15 -11 -4 1 6 8 12 21 12 29
0 13 -2 13 -12 -1 -21 -24 -74 -41 -105 -32 -16 4 -32 6 -38 5 -5 -2 -37 -5
-70 -7 -33 -3 -71 -7 -85 -11 -29 -7 -75 -4 -103 6 -21 8 -91 -6 -167 -34 -24
-9 -53 -14 -64 -11 -11 3 -26 0 -34 -6 -8 -7 -48 -13 -90 -13 -43 -1 -77 -6
-79 -12 -5 -13 -61 -7 -80 9 -11 9 -11 13 -1 19 9 6 6 9 -9 9 -30 0 -29 14 1
28 19 8 26 8 30 -1 2 -7 5 -5 5 5 1 9 -8 20 -20 23 -16 6 -18 9 -8 22 7 8 21
12 32 9 10 -2 16 -2 13 1 -8 9 23 35 34 28 5 -3 7 0 4 8 -4 11 -14 13 -42 6
-24 -5 -39 -4 -43 3 -4 6 -13 -2 -21 -18 -8 -17 -22 -29 -33 -30 -40 -1 -71
-18 -114 -61 -24 -24 -55 -46 -67 -49 -13 -3 -22 -10 -19 -14 8 -13 -31 -41
-49 -34 -17 6 -22 24 -8 24 5 0 9 6 10 13 0 6 4 35 9 62 7 42 12 51 31 53 16
3 22 8 18 19 -3 8 -6 21 -6 29 0 8 -5 14 -11 14 -7 0 -9 -10 -7 -25 4 -17 1
-25 -8 -25 -8 0 -13 6 -12 13 2 7 -7 11 -22 10 -14 -1 -17 1 -8 3 19 6 53 53
44 61 -3 4 -16 -2 -28 -13 -13 -10 -17 -12 -10 -4 17 20 15 35 -3 20 -8 -7
-15 -18 -15 -25 0 -6 -7 -12 -15 -12 -8 0 -12 4 -9 9 10 16 -7 7 -37 -19 -17
-16 -38 -41 -46 -56 -10 -21 -19 -26 -34 -22 -14 5 -22 0 -30 -22 -6 -16 -13
-22 -16 -15 -7 19 -23 14 -23 -7 0 -11 -10 -27 -22 -35 -12 -9 -17 -16 -11
-16 8 0 4 -14 -9 -36 -12 -21 -23 -58 -25 -83 -6 -82 -7 -86 -41 -89 -26 -3
-30 0 -25 17 3 12 1 21 -6 21 -6 0 -11 7 -11 16 0 8 -5 24 -11 35 -10 19 -12
19 -36 4 -13 -9 -32 -14 -40 -11 -12 5 -13 3 -5 -7 8 -10 6 -16 -8 -25 -14 -8
-21 -8 -26 -1 -4 6 -1 15 6 19 8 5 3 10 -14 14 -15 4 -25 10 -22 14 2 4 -2 13
-10 19 -7 8 -15 9 -19 4 -3 -6 -14 -9 -24 -8 -15 1 -17 5 -10 18 5 11 5 20 0
23 -5 4 -14 -6 -19 -21 -6 -16 -11 -22 -11 -15 -1 7 6 26 14 42 14 27 14 30 0
30 -8 0 -15 5 -15 10 0 6 -8 10 -17 10 -15 0 -16 2 -3 10 8 5 11 10 6 10 -5 0
-3 7 4 16 11 12 11 15 -1 12 -8 -2 -16 -6 -19 -9 -3 -4 -11 0 -19 8 -11 12
-11 14 2 11 9 -2 16 0 16 5 2 22 -1 26 -21 29 -16 2 -22 9 -20 22 2 12 -1 15
-8 11 -9 -6 -9 -2 0 15 8 15 8 20 1 16 -7 -4 -11 1 -11 13 0 15 5 19 18 15 9
-4 2 3 -15 15 -18 11 -33 22 -33 24 0 9 36 3 42 -7 5 -7 8 -5 8 5 0 9 -7 19
-15 23 -8 3 -15 15 -15 26 0 11 -6 23 -14 26 -8 3 -12 12 -9 20 3 8 -3 21 -13
29 -15 11 -17 16 -6 26 14 15 16 33 2 24 -5 -3 -10 -1 -10 5 0 6 -11 15 -25
20 -24 9 -35 30 -16 30 5 0 9 14 9 30 -1 19 -5 27 -10 22 -6 -6 -22 -3 -41 6
-24 12 -27 17 -15 20 9 2 15 9 12 17 -3 7 0 16 6 20 8 5 6 12 -5 25 -9 10 -14
24 -10 29 8 14 -8 14 -21 1 -8 -8 -15 -6 -24 5 -11 13 -10 15 3 9 9 -3 24 0
34 6 16 10 16 11 1 6 -19 -6 -43 25 -30 39 4 5 -2 5 -12 1 -15 -5 -17 -4 -7 8
9 11 8 15 -4 20 -8 3 -15 1 -15 -4 0 -5 -8 -6 -17 -3 -10 4 -12 8 -6 10 7 3 9
11 6 19 -3 7 -9 11 -14 8 -5 -3 -6 2 -3 10 4 10 1 16 -7 16 -11 0 -11 3 1 10
10 7 12 12 4 18 -11 7 -29 60 -25 75 1 5 -3 6 -8 3 -15 -9 -21 21 -14 69 4 31
2 45 -6 45 -6 0 -11 7 -11 16 0 9 5 12 12 8 8 -5 9 -2 5 9 -3 10 -2 17 3 17 6
0 10 5 10 11 0 6 -7 9 -15 5 -20 -7 -19 0 6 35 12 18 16 29 8 29 -9 0 -8 4 1
15 10 12 10 15 0 15 -8 0 -11 9 -8 25 4 17 1 25 -8 25 -8 0 -14 7 -14 16 0 14
2 15 17 3 15 -13 15 -12 4 9 -14 26 -4 30 14 5 10 -13 11 -11 7 15 -3 21 0 32
8 32 7 0 10 -7 6 -15 -3 -9 0 -15 10 -15 9 0 12 -5 8 -12 -4 -6 -3 -8 3 -5 5
4 23 -7 39 -24 201 -210 546 -271 820 -144 42 19 98 51 125 71 51 37 56 29 17
-28 -10 -14 -18 -30 -18 -35 0 -12 -101 -103 -135 -120 -40 -21 -152 -56 -245
-77 -112 -26 -149 -38 -162 -54 -11 -13 0 -14 79 -8 87 6 144 19 223 53 58 25
85 38 90 43 10 10 46 31 73 43 15 6 27 15 27 19 0 4 5 8 10 8 21 0 120 114
153 175 30 55 67 145 67 162 0 9 22 61 49 117 58 121 69 153 110 338 6 26 11
71 11 100 0 71 34 114 105 133 66 18 82 18 141 0z m276 -60 c-4 -55 -2 -66 12
-71 11 -4 24 0 34 10 9 10 13 16 7 15 -31 -5 -38 1 -21 19 16 19 70 23 94 8
17 -10 41 4 44 26 2 14 12 22 29 24 32 3 34 -22 2 -40 -11 -6 -35 -24 -53 -39
-27 -23 -31 -30 -19 -38 17 -11 189 -8 189 3 0 4 -9 8 -20 8 -18 0 -18 1 3 24
28 30 87 66 108 66 12 0 19 -14 25 -51 l9 -52 158 -3 c86 -2 161 -5 165 -8 4
-3 14 -1 21 4 8 4 28 3 45 -2 17 -5 38 -11 46 -12 28 -5 50 -18 50 -32 0 -7 7
-17 16 -22 14 -8 11 -11 -17 -22 -19 -7 -38 -13 -42 -14 -4 -1 -12 -8 -17 -16
-8 -12 -10 -12 -10 -1 0 9 -7 11 -22 7 -55 -17 -143 -17 -227 -2 -87 16 -145
19 -246 12 -62 -4 -60 -3 -46 -20 7 -8 26 -18 42 -21 16 -4 29 -10 29 -14 0
-3 11 -8 25 -9 14 -1 38 -8 53 -16 26 -14 125 -29 182 -28 59 0 154 13 164 21
9 7 51 19 96 26 3 0 14 6 25 12 23 13 25 13 63 13 16 0 37 7 48 16 10 8 13 13
7 9 -15 -7 -17 4 -4 24 6 9 10 10 16 2 4 -7 16 -9 28 -5 23 8 61 15 89 17 9 1
14 5 12 9 -3 4 0 8 5 8 6 0 11 -6 11 -14 0 -9 7 -12 19 -9 19 5 30 39 32 97 0
25 2 27 8 11 26 -66 -23 -284 -85 -383 -19 -29 -34 -59 -34 -66 0 -8 -30 -42
-67 -76 -122 -114 -305 -179 -463 -164 -41 4 -87 6 -102 5 -31 -3 -99 19 -170
55 -127 64 -279 259 -336 430 -23 67 -34 226 -20 292 5 23 11 42 12 42 2 0 1
-29 -2 -65z m885 59 c-3 -3 -12 -4 -19 -1 -8 3 -5 6 6 6 11 1 17 -2 13 -5z
m-2387 -18 c0 -2 -8 -10 -17 -17 -16 -13 -17 -12 -4 4 13 16 21 21 21 13z
m370 -26 c36 -11 89 -20 118 -20 28 0 52 -4 52 -10 0 -9 -38 -15 -63 -11 -5 1
-6 -3 -2 -8 3 -6 12 -8 20 -4 10 3 13 1 10 -9 -5 -12 -31 -15 -138 -15 -136 1
-205 -5 -226 -17 -6 -4 -16 -4 -22 -1 -6 4 -16 -1 -23 -11 -8 -10 -20 -15 -30
-11 -10 4 -19 1 -23 -8 -4 -13 -8 -13 -22 -3 -9 7 -13 8 -9 4 10 -12 -26 -37
-57 -40 -20 -3 -22 -1 -12 15 7 11 15 19 20 19 4 0 5 5 2 10 -3 6 -2 10 3 10
5 0 15 11 22 25 15 27 112 80 175 94 67 15 137 12 205 -9z m1290 -10 c0 -5 -2
-10 -4 -10 -3 0 -8 5 -11 10 -3 6 -1 10 4 10 6 0 11 -4 11 -10z m634 -26 c23
-9 20 -19 -9 -32 -34 -16 -35 -15 -35 6 0 30 13 38 44 26z m1240 -16 c-6 -20
-5 -21 10 -9 27 23 30 4 4 -21 -14 -13 -32 -36 -41 -53 -8 -16 -26 -40 -39
-52 -65 -59 -101 -118 -112 -179 -7 -39 14 -27 31 16 19 47 57 57 67 17 4 -19
13 -24 37 -25 39 -1 41 -3 43 -46 0 -19 5 -38 9 -43 5 -4 8 -1 6 7 -2 8 2 25
9 37 7 13 10 34 6 48 -4 15 -2 25 4 25 6 0 14 -21 17 -47 3 -27 11 -68 16 -93
27 -120 30 -147 48 -380 11 -136 8 -307 -6 -367 -15 -62 -51 -138 -89 -182
-43 -51 -77 -64 -168 -62 -45 1 -90 2 -100 2 -31 0 -76 28 -88 54 -6 14 -14
25 -18 25 -14 0 -19 43 -7 64 6 12 10 24 9 28 -2 10 56 21 69 12 8 -5 9 -3 3
7 -5 8 -9 21 -9 29 0 8 -6 14 -13 12 -8 -1 -11 2 -7 8 10 15 -25 25 -38 10 -9
-10 -9 -11 2 -5 10 6 12 4 7 -4 -14 -22 -35 8 -30 42 6 42 16 176 15 205 0 12
4 64 10 115 6 50 10 102 10 114 -1 30 35 51 43 25 9 -26 44 -62 62 -62 8 0 13
4 10 9 -4 5 7 12 24 16 29 6 43 35 18 35 -9 0 -8 4 2 11 11 8 12 12 3 16 -7 2
-13 9 -13 15 0 13 26 38 39 38 6 0 11 5 11 11 0 5 4 8 9 4 6 -3 8 4 6 15 -2
11 1 20 6 20 21 0 -2 19 -31 25 -33 7 -55 37 -46 61 3 9 9 13 13 11 5 -3 6 17
5 44 -2 27 -8 49 -13 49 -5 0 -9 -4 -9 -9 0 -6 -23 -32 -51 -60 -28 -27 -50
-53 -49 -58 1 -4 -3 -9 -8 -11 -9 -3 -22 64 -14 72 2 2 5 33 7 67 3 35 9 65
15 67 7 3 6 9 -2 20 -7 9 -8 13 -3 10 6 -3 16 0 23 8 10 11 10 14 0 14 -7 0
-1 8 15 18 15 9 27 20 27 25 0 4 4 6 9 3 5 -3 14 6 19 22 12 34 48 72 68 72 8
0 12 5 9 10 -3 6 1 10 9 10 9 0 16 7 16 16 0 8 4 13 10 9 5 -3 16 8 25 25 12
24 21 30 36 25 11 -4 19 -2 19 4 0 6 5 11 11 11 6 0 8 -9 3 -22z m-2777 -63
c15 -4 20 -10 16 -25 -4 -17 0 -20 25 -20 38 0 44 -15 38 -106 -15 -217 -71
-343 -230 -512 -51 -54 -93 -81 -176 -114 -85 -33 -121 -39 -238 -39 -115 0
-226 26 -313 72 -71 38 -139 96 -159 135 -8 16 -26 47 -40 69 -35 55 -67 124
-75 163 -4 18 -13 36 -21 39 -9 3 -14 19 -13 42 l1 36 12 -35 c18 -52 38 -90
48 -90 5 0 6 -5 2 -11 -5 -8 1 -10 19 -5 14 3 37 2 51 -4 21 -8 26 -7 26 7 0
9 3 13 6 10 4 -3 16 -1 28 6 11 6 28 13 36 14 8 1 30 4 47 7 18 2 35 0 38 -4
3 -5 20 -8 37 -6 17 2 45 -2 62 -9 45 -18 162 -22 258 -11 71 9 198 53 198 68
0 5 5 8 11 8 6 0 30 13 53 28 22 15 49 31 59 35 9 3 17 10 17 15 0 15 -91 -6
-113 -26 -11 -9 -17 -11 -13 -4 10 17 -2 15 -20 -3 -15 -15 -52 -21 -108 -17
-19 2 -33 -4 -43 -17 -10 -16 -23 -19 -58 -17 -25 1 -45 -1 -45 -5 0 -4 -43
-8 -95 -8 -68 0 -105 4 -129 16 l-34 16 21 28 c11 16 26 29 33 29 6 0 15 7 18
16 4 10 13 13 24 10 14 -5 18 -1 17 13 -1 11 -7 26 -13 34 -10 11 -6 20 18 46
17 17 32 31 34 31 3 0 15 -18 27 -40 27 -48 72 -67 122 -51 17 6 63 15 101 20
37 5 71 12 74 16 3 3 8 32 10 65 4 49 8 60 22 60 27 0 83 -21 105 -40 11 -9
28 -20 38 -23 9 -4 17 -13 17 -20 0 -24 91 -10 112 17 20 23 23 19 -48 69
l-31 22 56 3 c31 1 66 0 78 -3z m-427 -15 c0 -13 -20 -13 -40 0 -12 8 -9 10
13 10 15 0 27 -4 27 -10z m2195 -100 c3 -6 -1 -7 -9 -4 -18 7 -21 14 -7 14 6
0 13 -4 16 -10z m-2945 -130 c0 -5 -5 -10 -11 -10 -5 0 -7 5 -4 10 3 6 8 10
11 10 2 0 4 -4 4 -10z m-521 -186 c13 -3 36 -14 50 -25 16 -13 33 -18 48 -14
13 3 23 1 23 -5 0 -6 5 -8 12 -4 7 5 8 3 3 -6 -4 -7 -4 -15 1 -19 11 -7 38
-61 39 -76 0 -5 4 -16 8 -22 11 -18 0 -33 -19 -26 -8 3 -13 8 -10 10 10 10
-20 30 -98 67 -85 41 -96 49 -115 85 -11 19 -11 25 0 32 8 5 9 9 4 9 -6 0 -15
-4 -21 -10 -6 -6 -15 -5 -24 1 -13 9 -12 10 3 5 9 -3 17 -1 17 5 0 7 10 9 28
4 15 -4 38 -9 51 -11z m3971 -64 c0 -5 -2 -10 -4 -10 -3 0 -8 5 -11 10 -3 6
-1 10 4 10 6 0 11 -4 11 -10z m15 -188 c-3 -3 -11 0 -18 7 -9 10 -8 11 6 5 10
-3 15 -9 12 -12z m-3885 -23 c0 -5 3 -8 8 -5 22 13 76 -71 65 -102 -3 -7 3
-20 13 -28 16 -11 16 -13 2 -8 -21 7 -53 -49 -42 -74 4 -10 7 -29 7 -44 0 -16
4 -28 10 -28 5 0 7 -9 4 -21 -4 -15 -2 -19 8 -15 8 3 17 1 20 -4 4 -6 1 -10
-5 -10 -7 0 -5 -7 4 -16 9 -8 20 -13 25 -10 15 10 61 -12 61 -28 0 -10 6 -13
16 -9 11 4 12 9 5 16 -17 17 -13 30 5 23 14 -5 15 -4 4 9 -15 18 -6 62 14 62
17 0 26 -17 33 -67 9 -58 10 -64 18 -95 4 -16 14 -37 21 -46 8 -8 18 -42 22
-75 5 -32 11 -66 13 -74 3 -9 -5 -16 -21 -18 -34 -5 -40 -18 -35 -83 3 -43 0
-59 -11 -63 -8 -3 -14 -9 -14 -14 0 -12 42 -13 56 -1 9 8 18 5 31 -10 9 -12
23 -21 29 -21 18 0 26 -30 10 -36 -8 -3 -19 -18 -24 -32 -7 -21 -21 -31 -62
-44 -29 -10 -57 -15 -62 -12 -4 3 -8 0 -8 -7 0 -6 -8 -9 -20 -6 -10 3 -20 1
-22 -4 -2 -6 -28 -7 -63 -3 -50 6 -64 13 -94 44 -43 43 -78 112 -86 166 -3 21
-10 50 -15 64 -9 25 -12 41 -30 160 -12 81 -32 178 -60 295 -15 62 -20 108
-17 148 8 93 15 87 37 -28 16 -80 25 -94 26 -40 2 44 19 79 34 70 5 -3 15 -2
24 1 12 4 13 11 6 24 -5 9 -6 20 -3 24 4 4 9 18 11 32 1 14 8 32 15 40 14 16
37 18 37 3z m3837 -180 c2 -18 -1 -28 -7 -24 -6 3 -10 16 -11 28 0 21 -1 21
-9 2 -6 -14 -9 -15 -9 -4 -1 16 20 42 27 34 3 -3 7 -19 9 -36z m221 -251 c-2
-6 -10 -13 -16 -14 -7 -1 -8 0 -2 3 5 2 8 9 4 14 -3 5 0 9 6 9 7 0 10 -5 8
-12z m-3548 -64 c0 -8 -19 -13 -24 -6 -3 5 1 9 9 9 8 0 15 -2 15 -3z m2460
-348 c0 -3 -4 -8 -10 -11 -5 -3 -10 -1 -10 4 0 6 5 11 10 11 6 0 10 -2 10 -4z
m754 -20 c-7 -18 -24 -22 -24 -5 0 5 -5 7 -12 3 -7 -4 -8 -3 -4 4 4 6 13 9 21
5 8 -3 15 1 15 8 0 7 2 10 5 7 3 -3 3 -13 -1 -22z m-746 -75 c2 -36 -20 -71
-45 -71 -19 0 -27 28 -15 53 5 12 13 30 16 39 3 9 13 16 23 15 13 -1 19 -10
21 -36z m142 -16 c0 -8 -2 -15 -4 -15 -2 0 -6 7 -10 15 -3 8 -1 15 4 15 6 0
10 -7 10 -15z m-1422 -160 c-3 -3 -9 2 -12 12 -6 14 -5 15 5 6 7 -7 10 -15 7
-18z m66 -31 c18 -7 22 -24 5 -24 -6 0 -17 7 -25 15 -16 16 -7 19 20 9z m1906
-44 c-6 -12 -14 -19 -17 -16 -3 3 0 12 6 20 7 8 9 21 5 28 -5 10 -4 10 5 2 10
-9 10 -17 1 -34z m-2212 -18 c2 -6 -1 -12 -7 -12 -6 0 -11 -7 -11 -16 0 -8 -4
-13 -9 -10 -5 3 -11 0 -14 -8 -4 -9 -15 -12 -31 -9 -20 4 -26 11 -23 27 1 11
5 26 9 31 9 14 81 12 86 -3z m-408 -88 c0 -3 -7 -12 -15 -20 -16 -17 -18 -14
-9 10 6 15 24 23 24 10z m-56 -36 c-3 -4 -12 -8 -20 -8 -12 0 -13 4 -3 21 9
17 13 19 19 8 5 -7 6 -17 4 -21z m-53 10 c1 -7 1 -15 1 -18 0 -3 6 -11 14 -18
8 -7 14 -8 14 -2 0 5 5 10 11 10 8 0 8 -4 -1 -15 -6 -8 -9 -19 -5 -25 3 -5 1
-10 -4 -10 -6 0 -11 4 -11 8 0 5 -11 14 -25 20 -21 10 -24 15 -16 31 6 10 7
21 4 25 -3 3 -1 6 5 6 7 0 13 -6 13 -12z m249 -74 c0 -8 5 -12 10 -9 6 3 10 2
10 -3 0 -11 -24 -22 -46 -22 -26 0 -7 49 19 50 4 0 7 -7 7 -16z m2340 6 c0
-18 -5 -25 -14 -22 -5 2 -4 -4 3 -12 11 -13 10 -17 -10 -25 -13 -5 -28 -6 -33
-3 -5 3 -6 0 -2 -6 4 -6 13 -9 21 -5 8 3 15 0 15 -6 0 -7 -7 -14 -15 -17 -12
-5 -13 -9 -4 -21 10 -11 9 -13 -2 -11 -8 2 -13 -4 -12 -12 2 -8 -7 -21 -18
-28 -14 -9 -19 -10 -14 -2 5 9 1 10 -13 6 -25 -8 -35 23 -16 49 8 10 14 27 14
37 0 10 5 18 10 18 6 0 10 5 10 10 0 6 -7 10 -17 10 -26 0 -11 8 27 15 19 3
38 13 43 21 9 16 27 19 27 4z m-120 -110 c0 -5 -2 -10 -4 -10 -3 0 -8 5 -11
10 -3 6 -1 10 4 10 6 0 11 -4 11 -10z m-23 -66 c-3 -3 -12 -4 -19 -1 -8 3 -5
6 6 6 11 1 17 -2 13 -5z m37 -16 c-3 -4 -12 -8 -20 -8 -8 0 -13 4 -10 8 3 5
12 9 20 9 8 0 13 -4 10 -9z m-114 -2 c0 -3 -4 -8 -10 -11 -5 -3 -10 -1 -10 4
0 6 5 11 10 11 6 0 10 -2 10 -4z m96 -18 c5 4 1 -2 -9 -14 -9 -11 -15 -23 -12
-26 3 -2 -2 -5 -10 -5 -9 0 -11 4 -6 11 5 6 7 19 6 29 -3 14 0 15 9 8 7 -6 17
-7 22 -3z m-2351 -8 c3 -6 -1 -7 -9 -4 -18 7 -21 14 -7 14 6 0 13 -4 16 -10z
m2200 -19 c3 -5 2 -12 -3 -15 -5 -3 -9 1 -9 9 0 17 3 19 12 6z m55 -56 c0 -8
-4 -15 -10 -15 -5 0 -7 7 -4 15 4 8 8 15 10 15 2 0 4 -7 4 -15z m-40 -46 c0
-6 -4 -7 -10 -4 -5 3 -10 11 -10 16 0 6 5 7 10 4 6 -3 10 -11 10 -16z m60 -11
c0 -5 -8 -17 -17 -26 -15 -15 -16 -15 -11 -1 3 9 2 22 -2 29 -5 8 -6 18 -3 23
6 9 33 -11 33 -25z m-1566 -344 c19 -7 22 -28 4 -22 -7 3 -20 -5 -30 -16 -17
-21 -17 -20 -7 12 12 35 11 34 33 26z m1946 -28 c0 -11 -19 -15 -25 -6 -3 5 1
10 9 10 9 0 16 -2 16 -4z m-1277 -43 c-4 -11 -8 -13 -11 -5 -2 7 -9 9 -14 6
-7 -4 -8 -2 -4 4 12 19 36 15 29 -5z m1347 11 c0 -3 -7 -20 -14 -39 -14 -32
-13 -35 2 -36 15 -1 15 -2 0 -6 -22 -5 -22 -10 -3 -29 8 -9 15 -12 15 -8 0 5
5 3 11 -3 6 -6 8 -17 4 -23 -6 -9 -9 -9 -15 0 -5 8 -9 7 -13 -5 -4 -9 -3 -13
3 -10 6 3 10 1 10 -4 0 -6 7 -11 16 -11 8 0 12 -5 9 -10 -4 -6 -10 -8 -15 -5
-4 3 -10 -2 -13 -10 -4 -8 -1 -12 6 -9 7 2 18 -9 24 -27 13 -33 7 -63 -10 -52
-6 4 -7 1 -2 -7 6 -10 12 -8 26 8 9 12 20 22 24 22 4 0 1 -7 -6 -16 -11 -14
-10 -18 6 -30 14 -10 15 -14 4 -15 -8 0 -9 -3 -3 -5 8 -3 10 -30 8 -80 -3 -49
-1 -73 6 -69 6 4 7 -6 3 -26 -4 -23 -3 -30 5 -25 9 5 9 0 2 -19 -7 -17 -7 -24
0 -20 6 4 10 -7 10 -24 0 -18 -5 -31 -12 -32 -10 0 -10 -2 -1 -5 7 -3 9 -12 6
-20 -9 -23 7 -16 18 9 9 22 9 22 5 -2 -3 -14 0 -31 6 -38 8 -9 7 -18 -3 -30
-10 -11 -10 -14 -1 -9 13 8 13 8 16 -51 1 -22 8 -48 14 -56 11 -12 10 -18 -1
-28 -16 -16 0 -59 22 -59 15 0 6 -14 -10 -16 -5 -1 -12 -2 -16 -3 -4 0 2 -8
13 -16 19 -14 18 -14 -3 -15 -13 0 -23 -4 -23 -9 0 -5 10 -7 22 -3 18 4 20 2
16 -16 -4 -12 -2 -25 4 -28 5 -3 7 -12 4 -20 -7 -17 3 -46 13 -39 4 2 8 -2 8
-10 0 -8 -4 -15 -9 -15 -4 0 -8 -5 -8 -11 0 -5 5 -7 12 -3 8 5 9 2 5 -9 -3
-10 -2 -17 2 -17 5 0 11 5 13 12 2 6 18 -3 35 -22 30 -32 30 -32 28 -8 -4 34
-34 90 -44 83 -5 -3 -7 4 -4 14 3 10 -5 40 -16 66 -21 48 -27 85 -13 85 11 0
67 -50 56 -50 -5 -1 1 -6 13 -13 12 -7 41 -30 65 -52 23 -22 63 -53 88 -70 25
-16 47 -32 50 -35 3 -3 14 -10 25 -16 11 -6 20 -15 21 -20 0 -5 4 -22 9 -37 9
-34 -14 -100 -59 -166 -17 -25 -43 -71 -57 -101 -98 -205 -372 -424 -669 -533
-36 -13 -126 -47 -200 -75 -167 -62 -316 -108 -395 -121 -113 -20 -280 -40
-380 -46 -55 -3 -138 -10 -185 -15 -121 -13 -368 -12 -485 1 -55 6 -169 28
-252 50 -148 38 -185 53 -394 165 -44 24 -239 194 -239 210 0 7 -4 14 -9 14
-9 0 -97 88 -131 132 -12 15 -22 38 -23 50 0 13 -6 26 -12 30 -6 5 -5 8 3 8 7
0 11 4 8 9 -3 5 1 12 10 15 8 3 12 11 8 17 -4 8 -9 8 -13 1 -4 -7 -12 -8 -21
-2 -13 8 -12 10 3 10 9 0 17 8 18 18 0 10 3 12 6 5 7 -18 31 -16 50 3 14 13
14 17 2 24 -10 7 -8 9 8 7 12 0 21 -6 20 -12 -1 -5 3 -9 8 -8 6 1 11 -7 11
-18 0 -10 -4 -19 -9 -19 -5 0 -3 -7 4 -16 7 -9 12 -29 11 -45 -3 -20 4 -36 21
-53 16 -16 21 -27 14 -29 -7 -3 -3 -5 9 -4 20 1 27 28 11 43 -11 12 13 33 31
27 12 -3 13 -2 4 4 -22 16 -23 55 -2 73 11 9 17 20 13 24 -3 3 -2 6 4 6 6 0
13 -7 17 -15 7 -20 33 -19 44 1 6 11 11 13 16 5 4 -6 15 -11 24 -10 23 0 -26
22 -53 23 -11 1 -20 7 -20 14 0 6 5 11 10 10 6 -2 9 -7 7 -11 -1 -5 2 -6 8 -2
5 3 19 1 30 -5 16 -9 18 -8 14 5 -4 8 -13 15 -20 15 -11 0 -12 4 -4 19 7 14 7
20 -1 23 -7 2 -5 9 5 17 14 12 16 12 11 0 -6 -19 14 -49 22 -32 2 7 14 11 26
9 12 -1 16 -1 10 1 -7 3 -13 11 -13 19 0 8 -4 12 -10 9 -5 -3 -10 -1 -10 5 0
6 -16 26 -35 45 -25 26 -30 35 -17 35 25 -1 55 -27 47 -42 -3 -7 1 -4 10 7 12
15 13 21 3 25 -7 3 -14 13 -16 24 -2 11 1 15 7 11 6 -3 11 -1 11 4 0 6 -8 11
-17 11 -14 0 -18 8 -18 38 0 32 3 38 18 34 9 -2 17 -8 17 -13 0 -5 6 -9 13 -9
6 1 -1 12 -18 25 -16 14 -26 25 -21 25 6 0 1 7 -10 15 -19 14 -18 14 4 15 12
0 22 -6 23 -12 0 -10 2 -10 5 -1 3 7 13 9 22 6 10 -3 13 -2 6 4 -6 4 -16 17
-23 28 -9 15 -11 16 -7 3 3 -11 0 -18 -8 -18 -8 0 -13 11 -13 25 0 14 3 25 7
25 5 0 6 9 3 21 -4 12 0 25 8 30 8 5 9 9 3 9 -6 0 -11 6 -11 13 0 6 -4 20 -8
30 -4 11 -3 17 5 17 9 0 9 4 3 13 -6 6 -9 21 -7 32 1 11 -2 23 -8 26 -14 9 7
37 37 50 20 9 20 9 0 8 -42 -2 -49 3 -20 16 19 9 24 14 13 15 -18 0 -24 15
-10 23 4 2 1 2 -5 1 -7 -2 -13 1 -13 6 0 5 10 11 23 13 16 3 14 5 -10 6 -33 1
-51 15 -33 26 5 3 10 11 10 17 0 7 -6 6 -15 -2 -12 -10 -15 -10 -15 4 0 9 3
15 8 15 18 -3 35 2 29 8 -4 3 -2 12 4 20 9 10 8 13 -5 13 -9 0 -16 6 -16 14 0
8 7 13 16 12 9 0 19 5 22 13 3 8 0 11 -7 7 -7 -5 -9 -1 -5 8 8 21 22 20 26 0
2 -13 9 -11 41 10 21 14 41 26 45 26 4 0 0 -5 -8 -10 -12 -8 -11 -10 7 -10 14
0 24 -9 31 -29 6 -16 8 -32 5 -35 -4 -3 1 -6 11 -6 9 0 15 -4 12 -8 -3 -5 1
-9 9 -9 8 0 15 4 15 9 0 16 17 -1 23 -23 4 -16 2 -19 -11 -15 -14 5 -14 4 1
-8 18 -14 18 -15 0 -26 -16 -9 -15 -10 7 -4 24 6 24 5 6 -8 -18 -14 -18 -15 5
-31 13 -10 27 -17 32 -17 14 0 37 -27 37 -43 0 -16 29 -88 30 -73 0 5 6 3 13
-3 8 -6 17 -8 20 -4 4 3 7 1 7 -6 0 -7 5 -9 10 -6 6 3 10 1 10 -6 0 -7 -8 -9
-21 -6 -16 4 -18 3 -9 -8 6 -8 10 -24 8 -37 -2 -16 4 -26 20 -33 20 -9 27 -24
23 -48 -1 -5 3 -6 8 -2 6 3 9 11 7 18 -1 7 -1 9 1 5 3 -5 11 -8 18 -8 8 0 17
-5 21 -12 4 -7 3 -8 -4 -4 -7 4 -12 2 -12 -4 0 -6 -4 -8 -10 -5 -5 3 -10 1
-10 -4 0 -6 7 -11 16 -11 24 0 42 -24 41 -53 -1 -15 -5 -27 -8 -27 -14 0 -17
-41 -3 -47 8 -3 11 -10 7 -16 -4 -6 -1 -7 7 -2 10 6 10 11 -4 20 -17 13 -13
20 24 40 13 8 13 6 1 -8 -7 -9 -10 -24 -7 -33 4 -9 1 -24 -6 -33 -12 -14 -11
-15 5 -2 20 16 33 9 21 -10 -12 -19 -14 -60 -3 -54 5 4 9 2 9 -2 0 -5 10 -13
22 -18 12 -6 24 -16 26 -24 3 -9 0 -11 -9 -6 -11 6 -12 5 -2 -5 10 -11 10 -17
0 -29 -8 -10 -8 -12 -1 -8 7 4 15 0 18 -9 3 -8 2 -12 -4 -9 -6 3 -10 -1 -10
-9 0 -9 5 -16 10 -16 6 0 10 -8 8 -17 -2 -10 2 -18 9 -18 7 0 18 -6 25 -14 11
-11 9 -12 -12 -7 -18 4 -16 2 8 -9 17 -8 32 -22 32 -30 0 -19 -19 -19 -26 0
-6 16 -34 21 -34 7 0 -15 38 -44 49 -38 6 4 13 -6 17 -21 8 -34 23 -55 35 -47
5 3 9 0 9 -7 0 -7 -8 -9 -21 -6 -14 4 -19 2 -16 -8 3 -7 0 -18 -6 -24 -8 -8
-8 -11 0 -11 6 0 13 7 17 15 9 24 28 17 24 -10 -3 -25 -1 -27 32 -18 12 3 20
14 20 27 1 18 3 17 17 -9 20 -39 23 -41 31 -29 4 5 20 7 37 3 17 -4 22 -7 13
-8 -10 0 -18 -5 -18 -11 0 -5 -7 -10 -15 -10 -8 0 -15 -6 -15 -13 0 -7 -9 -13
-21 -14 -20 -2 -20 -1 -5 16 12 13 13 20 4 29 -15 15 -45 15 -54 0 -5 -7 -2
-9 8 -6 8 4 21 2 28 -2 11 -7 9 -12 -8 -27 -16 -13 -19 -22 -12 -33 9 -13 11
-13 20 0 6 10 10 11 10 3 0 -10 20 -12 80 -9 48 3 78 1 75 -4 -4 -6 7 -7 25
-4 19 4 30 2 30 -5 0 -17 24 -8 37 14 6 11 17 20 24 20 7 0 14 7 16 15 4 13 3
13 -7 0 -10 -13 -11 -13 -7 0 2 8 12 17 22 18 9 2 15 0 11 -6 -3 -5 1 -15 9
-22 12 -10 15 -9 15 4 0 13 9 16 38 15 20 -2 50 1 66 6 25 7 28 6 23 -9 -4 -9
-2 -16 3 -16 6 0 10 9 10 20 0 15 6 19 23 17 12 -1 21 3 20 9 -1 6 11 11 28
11 20 0 29 -5 29 -16 0 -11 -3 -12 -8 -4 -6 9 -11 8 -19 -5 -9 -15 -7 -18 16
-17 23 0 26 3 23 26 -2 15 2 37 8 49 11 20 10 22 -4 17 -9 -4 -15 -1 -13 6 1
7 -4 11 -12 9 -20 -4 5 25 27 33 10 2 22 13 28 22 9 16 7 18 -15 18 -113 3
-130 5 -125 20 4 8 14 15 24 15 30 0 50 11 43 24 -3 6 -3 8 2 4 4 -4 15 -2 23
5 13 10 14 9 7 -3 -8 -13 -7 -13 8 -1 14 11 20 11 32 1 10 -8 15 -9 15 -1 0 6
18 14 40 17 22 4 37 11 34 15 -3 5 -9 7 -14 4 -5 -3 -12 0 -16 6 -5 8 -9 8
-14 -1 -11 -18 -71 -21 -87 -4 -8 8 -12 15 -9 15 3 1 9 3 14 4 4 2 17 6 30 10
17 6 20 11 12 21 -9 10 -5 13 19 12 17 -1 37 5 45 11 8 7 24 10 36 6 11 -4 20
-2 20 4 0 6 -9 11 -20 11 -11 0 -20 5 -20 10 0 6 6 10 13 10 9 0 8 3 -2 9 -9
6 -10 11 -3 15 6 4 9 13 6 21 -4 8 -10 12 -15 9 -5 -3 -9 0 -9 5 0 6 7 11 15
11 8 0 15 -5 15 -11 0 -5 4 -8 10 -4 5 3 7 12 3 21 -3 8 -2 14 3 12 5 -1 20 4
33 11 21 12 23 11 18 -2 -3 -9 -1 -18 6 -20 18 -6 49 12 41 25 -5 7 -12 5 -21
-8 -14 -19 -14 -19 -11 1 2 15 -2 20 -21 19 l-23 -1 23 18 c13 10 25 14 27 9
2 -5 9 -4 17 3 7 7 11 15 8 19 -2 4 3 5 11 2 14 -5 14 -8 1 -21 -22 -22 -18
-23 16 -6 24 12 28 18 18 25 -10 7 -9 8 6 4 11 -3 27 -1 35 4 11 7 7 10 -17
10 -17 0 -35 4 -38 10 -4 6 1 7 10 3 10 -3 21 0 26 8 8 12 10 12 18 -1 6 -8
13 -11 17 -7 4 3 1 15 -7 24 -7 10 -9 15 -5 11 5 -4 15 -3 22 3 8 6 14 7 18 0
4 -6 14 -7 22 -4 11 4 15 1 13 -13 -2 -10 1 -20 6 -21 5 -2 10 7 10 20 0 12 6
21 13 20 14 -3 16 16 2 37 -9 13 -10 13 -10 0 0 -13 -1 -13 -10 0 -14 21 -12
30 4 30 8 0 17 7 20 16 3 8 11 12 17 8 8 -4 9 -3 5 4 -4 7 -2 12 3 12 6 0 11
-4 11 -8 0 -4 9 -8 19 -8 11 0 18 4 15 8 -2 4 4 12 13 18 15 9 10 10 -22 7
-22 -3 -51 -7 -64 -10 -13 -4 -21 -4 -17 0 3 3 1 12 -5 20 -9 10 -6 13 17 13
22 0 26 3 14 10 -8 5 -12 10 -8 10 3 0 14 3 24 7 10 4 15 2 11 -3 -3 -6 -1
-16 5 -24 8 -12 9 -12 4 3 -4 13 2 21 22 29 l27 11 -25 7 -25 8 26 1 c29 1 62
51 34 51 -8 0 -15 7 -15 15 0 8 -7 15 -15 15 -9 0 -12 6 -8 16 5 14 3 15 -18
4 l-24 -13 24 27 c14 14 22 26 18 26 -4 0 -1 12 5 28 6 15 10 37 9 50 0 16 3
21 12 16 9 -6 8 -3 -1 8 -10 12 -11 22 -3 37 8 14 8 21 -2 25 -6 3 -1 3 13 0
14 -3 30 -12 36 -20 6 -8 15 -14 19 -14 4 0 2 6 -4 13 -6 8 -7 18 -3 22 4 5 1
5 -6 0 -10 -5 -13 -2 -10 11 3 14 12 19 35 18 18 0 30 3 27 8 -3 4 0 8 5 8 6
0 10 10 10 23 -1 16 -2 18 -6 5 -6 -23 -19 -23 -27 -1 -4 10 -4 14 0 10 4 -4
14 -2 21 5 11 9 17 9 24 -3 8 -12 10 -12 8 1 -4 36 0 40 25 28 22 -9 29 -7 58
17 18 16 25 26 16 22 -9 -3 -19 0 -21 7 -3 8 1 13 11 12 9 0 18 7 20 16 3 13
-1 16 -15 12 -17 -5 -17 -5 -1 9 10 8 16 16 14 18 -2 2 9 5 25 6 16 1 27 -2
24 -6 -3 -5 4 -7 15 -4 11 3 20 9 20 14 0 5 -7 5 -17 2 -10 -4 -14 -2 -10 4 4
6 -4 8 -21 5 l-27 -5 30 24 c17 14 43 33 60 44 20 12 25 20 16 23 -8 3 -19 -2
-25 -10 -6 -8 -21 -20 -32 -26 -18 -9 -24 -9 -34 3 -10 13 -10 14 1 10 8 -3
27 6 43 20 33 28 64 32 72 10 4 -8 10 -12 15 -9 14 8 10 24 -6 24 -8 0 -15 4
-15 8 0 10 61 56 75 57 18 0 50 23 43 30 -4 4 -15 0 -24 -9 -20 -20 -32 -13
-15 8 7 8 10 19 7 25 -4 5 3 7 15 4 12 -4 25 0 30 8 7 11 9 11 9 1 0 -8 8 -5
22 8 12 11 26 20 30 20 5 0 5 12 2 28 -4 15 -3 24 1 20 4 -4 20 2 36 12 20 15
30 17 35 9 4 -8 3 -9 -4 -5 -19 11 -14 -10 6 -25 9 -7 14 -10 10 -5 -6 8 0 19
28 49 8 9 7 15 -5 24 -14 12 -14 12 2 7 13 -5 20 -1 23 13 4 16 44 31 44 17z
m-104 -19 c-8 -8 -18 -15 -22 -15 -3 0 -1 7 6 15 7 8 17 15 22 15 5 0 3 -7 -6
-15z m-1256 -25 c8 -5 11 -10 5 -10 -5 0 -17 5 -25 10 -8 5 -10 10 -5 10 6 0
17 -5 25 -10z m1280 -10 c0 -5 -7 -7 -15 -4 -8 4 -15 8 -15 10 0 2 7 4 15 4 8
0 15 -4 15 -10z m-136 -75 c25 -19 16 -19 -20 0 -16 8 -22 15 -14 15 8 -1 24
-7 34 -15z m-349 -405 c3 -6 -1 -7 -9 -4 -18 7 -21 14 -7 14 6 0 13 -4 16 -10z
m-1990 -43 c4 5 5 3 2 -4 -5 -8 -13 -8 -31 0 -13 7 -22 15 -19 20 3 5 13 1 22
-7 10 -9 21 -13 26 -9z m1826 -34 c13 -16 12 -17 -3 -4 -10 7 -18 15 -18 17 0
8 8 3 21 -13z m-1941 -53 c0 -5 -2 -10 -4 -10 -3 0 -8 5 -11 10 -3 6 -1 10 4
10 6 0 11 -4 11 -10z m1836 -165 c-8 -7 -14 -14 -11 -16 2 -3 -5 -5 -15 -6
-11 -1 -20 1 -20 4 0 10 32 30 48 30 12 0 12 -2 -2 -12z m-1801 -5 c3 -5 1
-10 -4 -10 -6 0 -11 5 -11 10 0 6 2 10 4 10 3 0 8 -4 11 -10z m-20 -129 c2
-11 0 -21 -6 -21 -5 0 -9 12 -9 27 0 30 9 27 15 -6z m1823 -1 c-9 -13 -14 -16
-17 -8 -2 7 -9 16 -15 20 -6 4 1 8 17 8 25 0 26 -2 15 -20z m-58 -14 c0 -3 -4
-8 -10 -11 -5 -3 -10 -1 -10 4 0 6 5 11 10 11 6 0 10 -2 10 -4z m-1250 -70 c0
-3 -4 -8 -10 -11 -5 -3 -10 -1 -10 4 0 6 5 11 10 11 6 0 10 -2 10 -4z m1265
-55 c-4 -23 -12 -41 -18 -41 -7 0 -5 -5 3 -10 10 -6 11 -10 3 -10 -17 0 -55
38 -42 42 5 2 11 13 11 25 2 14 8 20 20 18 10 -2 17 -1 17 3 -3 15 1 25 7 19
3 -3 3 -24 -1 -46z m35 25 c0 -3 -4 -8 -10 -11 -5 -3 -10 -1 -10 4 0 6 5 11
10 11 6 0 10 -2 10 -4z m-1800 -16 c0 -5 -5 -10 -11 -10 -5 0 -7 5 -4 10 3 6
8 10 11 10 2 0 4 -4 4 -10z m515 -12 c5 4 5 1 1 -5 -10 -18 -23 -16 -30 3 -5
13 -4 14 7 6 8 -7 18 -8 22 -4z m1160 3 c-3 -5 -1 -12 5 -16 5 -3 10 -12 10
-18 0 -7 -7 -3 -15 7 -13 17 -12 36 1 36 3 0 3 -4 -1 -9z m-1689 -20 c-4 -5 0
-11 6 -14 7 -3 4 -5 -8 -4 -23 1 -29 27 -7 27 8 0 12 -4 9 -9z m1668 -22 c-6
-11 -24 -2 -24 11 0 5 7 7 15 4 8 -4 12 -10 9 -15z m66 -9 c0 -5 -2 -10 -4
-10 -3 0 -8 5 -11 10 -3 6 -1 10 4 10 6 0 11 -4 11 -10z m-1735 -49 c3 -5 2
-12 -3 -15 -5 -3 -9 1 -9 9 0 17 3 19 12 6z m1575 -45 c0 -2 -7 -7 -16 -10 -8
-3 -12 -2 -9 4 6 10 25 14 25 6z m-45 -36 c3 -5 -1 -10 -10 -10 -9 0 -13 5
-10 10 3 6 8 10 10 10 2 0 7 -4 10 -10z m-66 -117 c-6 -7 -6 -12 0 -15 6 -1 7
-8 3 -14 -5 -7 -14 -4 -27 9 -11 11 -13 16 -5 12 12 -7 13 -6 3 6 -9 11 -10
18 -2 26 16 16 41 -7 28 -24z m-579 -18 c0 -5 -5 -3 -10 5 -5 8 -10 20 -10 25
0 6 5 3 10 -5 5 -8 10 -19 10 -25z m-273 3 c-3 -8 -6 -5 -6 6 -1 11 2 17 5 13
3 -3 4 -12 1 -19z m800 16 c-3 -3 -12 -4 -19 -1 -8 3 -5 6 6 6 11 1 17 -2 13
-5z m-1417 -20 c0 -8 -19 -13 -24 -6 -3 5 1 9 9 9 8 0 15 -2 15 -3z m1367 0
c-9 -10 -66 -13 -72 -4 -2 4 14 7 37 8 23 1 38 -1 35 -4z m38 -22 c-3 -3 -11
0 -18 7 -9 10 -8 11 6 5 10 -3 15 -9 12 -12z m-25 -12 c0 -5 -5 -10 -11 -10
-5 0 -7 5 -4 10 3 6 8 10 11 10 2 0 4 -4 4 -10z m-166 -24 c-3 -8 -1 -17 5
-21 16 -9 13 -25 -4 -25 -15 0 -21 40 -8 53 10 11 13 8 7 -7z m133 -11 c-7 -7
-13 -9 -15 -4 -2 5 -13 9 -25 10 -20 1 -20 2 3 8 35 10 53 3 37 -14z m-240 9
c-3 -3 -12 -4 -19 -1 -8 3 -5 6 6 6 11 1 17 -2 13 -5z m-97 -8 c0 -3 -4 -8
-10 -11 -5 -3 -10 -1 -10 4 0 6 5 11 10 11 6 0 10 -2 10 -4z m260 -6 c-13 -9
-13 -10 0 -11 8 -1 22 -3 30 -4 8 -1 21 -3 28 -4 17 -2 15 -21 -3 -21 -8 0
-15 -4 -15 -10 0 -5 -9 -1 -20 10 -12 12 -24 18 -29 16 -5 -3 -15 2 -24 12
-14 16 -13 17 16 19 24 2 28 0 17 -7z m-174 -22 c6 -1 11 -7 11 -15 0 -9 -4
-10 -12 -3 -7 6 -26 7 -42 4 -22 -4 -30 -2 -30 9 0 11 8 14 31 10 17 -2 36 -5
42 -5z m94 8 c0 -11 -19 -15 -25 -6 -3 5 1 10 9 10 9 0 16 -2 16 -4z m-185
-16 c3 -6 -1 -7 -9 -4 -18 7 -21 14 -7 14 6 0 13 -4 16 -10z m218 -43 c4 3 7
1 7 -6 0 -8 7 -11 15 -7 8 3 15 1 15 -5 0 -10 -48 -34 -62 -31 -5 1 -8 -5 -8
-13 0 -21 -24 -14 -30 9 -3 11 -12 22 -19 24 -10 3 -11 0 -5 -9 5 -9 -1 -8
-19 4 -15 9 -28 15 -28 12 -1 -3 -2 -9 -3 -14 -3 -24 -16 -21 -16 3 0 16 -4
25 -10 21 -6 -4 -8 -10 -5 -15 3 -4 -4 -6 -15 -3 -16 4 -18 9 -9 25 7 13 16
17 30 13 11 -4 40 -7 64 -7 32 -1 42 -5 38 -15 -4 -9 4 -13 23 -13 16 0 25 4
19 8 -5 4 -11 16 -12 27 -1 19 -1 19 11 3 7 -10 16 -15 19 -11z m-123 -77 c0
-5 -4 -10 -10 -10 -5 0 -10 5 -10 10 0 6 5 10 10 10 6 0 10 -4 10 -10z m247
-6 c-3 -3 -12 -4 -19 -1 -8 3 -5 6 6 6 11 1 17 -2 13 -5z m-606 -46 c-11 -11
-13 -10 -8 3 3 9 1 22 -4 28 -5 6 -1 4 8 -4 14 -12 15 -17 4 -27z m515 -17
c-4 -5 6 -13 21 -18 27 -9 27 -10 5 -15 -12 -4 -20 -3 -17 2 3 4 -2 11 -11 14
-13 5 -12 26 2 26 3 0 3 -4 0 -9z m-279 -81 c-1 -13 -6 -19 -15 -15 -7 3 -16
5 -20 5 -5 0 29 29 35 30 1 0 1 -9 0 -20z"/>
<path d="M4860 9250 c-13 -8 -13 -10 2 -10 9 0 20 5 23 10 8 13 -5 13 -25 0z"/>
<path d="M4900 9250 c0 -5 5 -10 11 -10 5 0 7 5 4 10 -3 6 -8 10 -11 10 -2 0
-4 -4 -4 -10z"/>
<path d="M4857 9219 c7 -7 15 -10 18 -7 3 3 -2 9 -12 12 -14 6 -15 5 -6 -5z"/>
<path d="M5600 9080 c20 -13 33 -13 25 0 -3 6 -14 10 -23 10 -15 0 -15 -2 -2
-10z"/>
<path d="M5648 9043 c7 -3 16 -2 19 1 4 3 -2 6 -13 5 -11 0 -14 -3 -6 -6z"/>
<path d="M4157 8990 c-18 -18 -18 -19 0 -28 16 -9 19 -7 21 19 3 34 3 34 -21
9z"/>
<path d="M4241 8984 c0 -11 3 -14 6 -6 3 7 2 16 -1 19 -3 4 -6 -2 -5 -13z"/>
<path d="M5755 8990 c-3 -6 1 -7 9 -4 18 7 21 14 7 14 -6 0 -13 -4 -16 -10z"/>
<path d="M4030 8981 c0 -6 4 -13 10 -16 6 -3 7 1 4 9 -7 18 -14 21 -14 7z"/>
<path d="M4000 8919 c0 -5 5 -7 10 -4 6 3 10 8 10 11 0 2 -4 4 -10 4 -5 0 -10
-5 -10 -11z"/>
<path d="M3857 8853 c-13 -12 -7 -25 6 -14 8 6 17 8 20 4 4 -3 7 -1 7 5 0 13
-22 16 -33 5z"/>
<path d="M3900 8851 c0 -5 7 -12 16 -15 14 -5 15 -4 4 9 -14 17 -20 19 -20 6z"/>
<path d="M6040 8803 c5 -2 8 -9 5 -13 -3 -5 0 -12 6 -15 7 -5 10 -1 7 10 -1
10 -9 20 -16 21 -7 1 -8 0 -2 -3z"/>
<path d="M6168 8692 c9 -11 21 -17 25 -14 14 7 1 25 -21 29 -21 3 -21 2 -4
-15z"/>
<path d="M6272 8514 c10 -10 20 -15 24 -12 3 4 -5 12 -18 18 -22 12 -22 12 -6
-6z"/>
<path d="M3520 8320 c-13 -8 -13 -10 2 -10 9 0 20 5 23 10 8 13 -5 13 -25 0z"/>
<path d="M3530 8279 c0 -5 5 -7 10 -4 6 3 10 8 10 11 0 2 -4 4 -10 4 -5 0 -10
-5 -10 -11z"/>
<path d="M6490 8249 c0 -6 6 -9 12 -7 7 3 19 -2 27 -10 11 -11 16 -11 19 -3 5
16 2 19 -31 25 -15 2 -27 0 -27 -5z"/>
<path d="M3455 8161 c-3 -5 -2 -12 3 -15 5 -3 9 1 9 9 0 17 -3 19 -12 6z"/>
<path d="M3464 8109 c-3 -6 -1 -15 5 -20 6 -5 9 -6 6 -3 -3 4 0 13 6 21 8 9 8
13 1 13 -6 0 -14 -5 -18 -11z"/>
<path d="M6580 7944 c0 -8 5 -12 10 -9 6 4 8 11 5 16 -9 14 -15 11 -15 -7z"/>
<path d="M6520 7811 c0 -6 4 -13 10 -16 6 -3 7 1 4 9 -7 18 -14 21 -14 7z"/>
<path d="M6570 7756 c7 -7 13 -7 20 0 6 6 3 10 -10 10 -13 0 -16 -4 -10 -10z"/>
<path d="M5615 7582 c-2 -3 -28 -5 -57 -4 -29 1 -62 -3 -73 -8 -23 -9 -52 -19
-63 -20 -4 -1 -10 -10 -14 -21 -4 -11 -12 -18 -17 -15 -5 3 -14 -1 -21 -9 -7
-8 -18 -15 -25 -15 -15 0 -47 -35 -39 -42 3 -4 -4 -9 -15 -13 -12 -3 -21 -11
-21 -16 0 -5 -5 -9 -11 -9 -5 0 -7 5 -3 12 5 7 3 8 -5 4 -7 -5 -10 -14 -7 -22
3 -8 1 -14 -4 -14 -5 0 -7 -6 -4 -14 4 -11 -5 -17 -33 -22 l-38 -7 30 -13 c39
-17 55 -11 145 51 123 85 237 131 418 166 l97 19 -77 -5 c-46 -4 -77 -2 -80 4
-3 11 -74 22 -83 13z"/>
<path d="M6008 7583 c17 -2 47 -2 65 0 17 2 3 4 -33 4 -36 0 -50 -2 -32 -4z"/>
<path d="M5913 7573 c9 -2 23 -2 30 0 6 3 -1 5 -18 5 -16 0 -22 -2 -12 -5z"/>
<path d="M3346 7537 c3 -10 9 -15 12 -12 3 3 0 11 -7 18 -10 9 -11 8 -5 -6z"/>
<path d="M4159 7472 c-17 -7 -34 -11 -36 -8 -3 3 -14 -3 -25 -13 -14 -14 -45
-21 -116 -27 l-97 -9 190 -6 c220 -8 306 -25 440 -89 89 -42 135 -50 155 -25
12 15 6 35 -12 35 -6 0 -16 7 -22 16 -6 8 -18 16 -26 18 -27 5 -101 38 -96 43
10 10 -19 30 -36 25 -10 -2 -18 0 -18 6 0 10 -30 25 -55 28 -5 0 -21 4 -35 8
-45 13 -178 11 -211 -2z"/>
<path d="M3803 7403 c15 -2 37 -2 50 0 12 2 0 4 -28 4 -27 0 -38 -2 -22 -4z"/>
<path d="M3645 7385 c-80 -17 -29 -17 60 -1 45 9 58 14 35 14 -19 0 -62 -6
-95 -13z"/>
<path d="M3410 7375 c-7 -9 -8 -15 -2 -15 5 0 12 7 16 15 3 8 4 15 2 15 -2 0
-9 -7 -16 -15z"/>
<path d="M5063 7353 c15 -2 37 -2 50 0 12 2 0 4 -28 4 -27 0 -38 -2 -22 -4z"/>
<path d="M5805 7482 c-67 -10 -212 -46 -220 -54 -7 -7 50 -9 167 -6 97 2 179
6 182 9 3 3 3 15 -1 28 -4 14 -8 18 -13 11 -5 -8 -11 -7 -23 4 -14 14 -39 16
-92 8z"/>
<path d="M6025 7451 c-3 -5 -1 -12 5 -16 5 -3 10 1 10 9 0 18 -6 21 -15 7z"/>
<path d="M6797 6439 c7 -7 15 -10 18 -7 3 3 -2 9 -12 12 -14 6 -15 5 -6 -5z"/>
<path d="M6775 6230 c-3 -5 -1 -10 4 -10 6 0 11 5 11 10 0 6 -2 10 -4 10 -3 0
-8 -4 -11 -10z"/>
<path d="M6780 6180 c0 -5 5 -10 11 -10 5 0 7 5 4 10 -3 6 -8 10 -11 10 -2 0
-4 -4 -4 -10z"/>
<path d="M5335 5994 c-40 -22 -81 -61 -115 -109 -34 -49 -83 -71 -106 -48 -16
16 -88 28 -79 13 9 -15 -98 2 -114 17 -7 8 -19 12 -26 9 -7 -2 -23 6 -36 18
-13 12 -39 29 -58 38 -37 18 -55 13 -145 -37 -38 -21 -121 -37 -103 -19 3 3
-2 15 -12 25 -11 12 -17 32 -16 54 1 19 -1 35 -6 35 -4 0 -8 -8 -8 -17 -2 -92
0 -133 8 -161 10 -34 33 -62 51 -62 6 0 8 -4 5 -10 -3 -5 1 -10 10 -10 9 0 26
-6 38 -13 12 -8 40 -12 62 -11 137 11 234 1 255 -26 3 -3 21 -18 41 -33 27
-20 51 -28 93 -31 34 -3 56 0 56 6 0 6 7 8 15 4 9 -3 15 0 15 8 0 7 7 19 15
26 8 7 14 18 13 24 -3 13 9 30 63 86 25 27 33 42 26 49 -7 7 -2 13 17 21 38
14 39 13 34 -15 -4 -17 -1 -25 9 -25 8 0 12 3 10 8 -3 4 22 8 55 9 33 0 81 9
107 18 52 20 134 93 126 113 -3 7 0 22 5 33 9 16 7 19 -8 19 -10 0 -24 -10
-31 -22 -9 -19 -11 -19 -6 -3 4 17 3 18 -7 4 -27 -32 -73 -30 -118 7 -26 21
-102 26 -135 8z"/>
<path d="M3575 5661 c-3 -5 -1 -12 5 -16 5 -3 10 1 10 9 0 18 -6 21 -15 7z"/>
<path d="M5425 5630 c-3 -5 1 -10 10 -10 9 0 13 5 10 10 -3 6 -8 10 -10 10 -2
0 -7 -4 -10 -10z"/>
<path d="M5328 5613 c7 -3 16 -2 19 1 4 3 -2 6 -13 5 -11 0 -14 -3 -6 -6z"/>
<path d="M5435 5601 c-3 -5 -1 -12 5 -16 5 -3 10 1 10 9 0 18 -6 21 -15 7z"/>
<path d="M5567 5593 c-4 -3 -7 -18 -7 -31 0 -31 9 -24 16 12 4 27 2 31 -9 19z"/>
<path d="M5717 5579 c-10 -36 -9 -44 12 -68 28 -32 34 -10 13 45 -17 43 -19
45 -25 23z"/>
<path d="M4725 5560 c3 -5 8 -10 11 -10 2 0 4 5 4 10 0 6 -5 10 -11 10 -5 0
-7 -4 -4 -10z"/>
<path d="M4543 5465 c-21 -25 -21 -25 -1 -25 14 0 18 -5 14 -15 -9 -25 10 -17
22 9 8 18 8 28 -1 40 -11 14 -14 13 -34 -9z"/>
<path d="M4632 5460 c0 -14 2 -19 5 -12 2 6 2 18 0 25 -3 6 -5 1 -5 -13z"/>
<path d="M6565 5460 c-3 -5 1 -10 10 -10 9 0 13 5 10 10 -3 6 -8 10 -10 10 -2
0 -7 -4 -10 -10z"/>
<path d="M6546 5426 c3 -9 10 -13 15 -10 5 3 9 1 9 -5 0 -5 -6 -12 -12 -14
-10 -4 -10 -7 -1 -14 15 -11 -22 -69 -49 -79 -24 -7 -23 -25 2 -52 30 -32 38
-27 36 20 0 24 4 43 11 45 7 3 9 11 6 19 -3 7 2 17 11 20 13 5 14 9 5 20 -9
11 -8 18 1 29 10 12 9 16 -6 21 -11 4 -22 9 -26 11 -4 2 -5 -3 -2 -11z m-26
-140 c0 -3 -4 -8 -10 -11 -5 -3 -10 -1 -10 4 0 6 5 11 10 11 6 0 10 -2 10 -4z"/>
<path d="M4490 5417 c-13 -7 -26 -19 -28 -27 -5 -13 -3 -13 11 -1 14 11 18 11
24 -4 4 -11 0 -22 -10 -30 -10 -7 -17 -16 -17 -20 0 -5 8 -2 18 6 33 27 60 38
81 32 16 -4 20 -2 15 10 -3 8 -17 18 -32 22 -15 4 -29 11 -32 15 -3 5 -16 4
-30 -3z"/>
<path d="M4685 5410 c-3 -5 -1 -10 4 -10 6 0 11 5 11 10 0 6 -2 10 -4 10 -3 0
-8 -4 -11 -10z"/>
<path d="M5536 5411 c-8 -12 23 -23 45 -16 11 4 19 2 19 -4 0 -6 12 -11 27
-11 26 0 27 10 1 14 -7 1 -19 5 -26 10 -7 4 -16 5 -19 2 -3 -3 -14 -1 -24 4
-10 6 -20 6 -23 1z"/>
<path d="M4490 5294 c0 -9 5 -14 12 -12 18 6 21 28 4 28 -9 0 -16 -7 -16 -16z"/>
<path d="M5665 5300 c-3 -5 -1 -10 4 -10 6 0 11 5 11 10 0 6 -2 10 -4 10 -3 0
-8 -4 -11 -10z"/>
<path d="M6182 5230 c17 -27 42 -36 29 -11 -6 10 -17 21 -26 24 -12 5 -13 3
-3 -13z"/>
<path d="M6480 5240 c0 -5 5 -10 11 -10 5 0 7 5 4 10 -3 6 -8 10 -11 10 -2 0
-4 -4 -4 -10z"/>
<path d="M4790 5216 c0 -2 7 -7 16 -10 8 -3 12 -2 9 4 -6 10 -25 14 -25 6z"/>
<path d="M6320 5199 c0 -5 5 -7 10 -4 6 3 10 8 10 11 0 2 -4 4 -10 4 -5 0 -10
-5 -10 -11z"/>
<path d="M6276 5192 c-4 -7 -3 -12 2 -12 5 0 12 -9 15 -20 4 -15 0 -20 -13
-20 -13 0 -17 -5 -13 -20 3 -11 1 -20 -5 -20 -13 0 -33 -92 -23 -103 5 -5 28
10 52 32 33 32 40 44 31 53 -9 9 -12 7 -12 -10 0 -13 -6 -22 -15 -22 -12 0
-11 6 5 34 21 38 24 96 4 96 -7 0 -14 5 -16 12 -3 9 -6 9 -12 0z"/>
<path d="M4758 5173 c7 -3 16 -2 19 1 4 3 -2 6 -13 5 -11 0 -14 -3 -6 -6z"/>
<path d="M3870 5142 c0 -12 19 -26 26 -19 2 2 -2 10 -11 17 -9 8 -15 8 -15 2z"/>
<path d="M5690 4918 c0 -3 9 -6 20 -5 11 1 20 5 20 9 0 3 -9 6 -20 5 -11 -1
-20 -5 -20 -9z"/>
<path d="M4412 4901 c-10 -6 -4 -12 19 -24 25 -11 37 -12 50 -4 10 6 15 15 13
19 -8 13 -54 9 -55 -4 0 -7 -3 -5 -7 4 -5 11 -12 14 -20 9z"/>
<path d="M5629 4906 c-4 -3 -63 -10 -219 -26 -91 -8 -142 -16 -169 -25 -9 -3
-49 -7 -88 -9 -39 -3 -89 -9 -110 -15 -21 -6 -50 -9 -65 -7 -16 2 -28 0 -28
-3 0 -4 -52 -7 -115 -8 -68 0 -115 4 -115 10 0 5 -8 3 -17 -4 -15 -12 -16 -12
-10 3 4 12 2 15 -9 11 -10 -4 -12 0 -7 13 5 13 3 15 -8 8 -15 -9 -51 -6 -59 5
-8 12 -90 30 -90 20 0 -5 5 -9 10 -9 6 0 10 -4 10 -10 0 -5 -3 -9 -7 -9 -5 1
-15 1 -23 0 -14 -1 -6 -8 64 -53 11 -7 38 -25 59 -40 22 -16 48 -28 58 -28 10
0 20 -4 23 -8 2 -4 22 -9 42 -10 21 -2 41 -7 44 -12 5 -9 106 -14 150 -7 14 2
35 0 48 -4 12 -5 22 -5 22 0 0 5 11 8 25 6 14 -1 25 1 25 4 0 3 39 5 87 4 70
-2 93 -7 115 -23 16 -11 28 -16 28 -10 0 5 12 13 26 16 19 5 23 9 12 16 -10 7
-9 11 6 23 12 9 22 11 26 6 3 -6 11 -6 20 -1 8 6 32 10 53 10 20 0 37 5 37 10
0 6 7 10 16 10 8 0 12 -4 9 -10 -3 -5 1 -10 9 -10 8 0 18 5 22 11 4 8 9 7 16
-2 8 -11 11 -11 15 -1 3 9 9 10 18 2 9 -8 14 -5 18 9 6 25 -8 37 -55 45 -29 5
-38 12 -38 26 0 13 7 20 18 20 10 0 22 4 28 9 5 6 22 12 38 15 30 5 54 22 45
31 -3 3 -8 3 -10 1z"/>
<path d="M6180 4890 c-13 -8 -12 -10 3 -10 9 0 17 5 17 10 0 12 -1 12 -20 0z"/>
<path d="M4797 4860 c3 -11 11 -16 19 -13 19 7 13 25 -8 29 -11 1 -14 -4 -11
-16z"/>
<path d="M4485 4860 c-3 -6 1 -7 9 -4 18 7 21 14 7 14 -6 0 -13 -4 -16 -10z"/>
<path d="M6110 4520 c0 -5 5 -10 10 -10 6 0 10 5 10 10 0 6 -4 10 -10 10 -5 0
-10 -4 -10 -10z"/>
<path d="M6038 4413 c7 -3 16 -2 19 1 4 3 -2 6 -13 5 -11 0 -14 -3 -6 -6z"/>
<path d="M4895 4260 c3 -5 8 -10 11 -10 2 0 4 5 4 10 0 6 -5 10 -11 10 -5 0
-7 -4 -4 -10z"/>
<path d="M4880 4225 c-7 -8 -8 -15 -2 -15 5 0 15 7 22 15 7 8 8 15 2 15 -5 0
-15 -7 -22 -15z"/>
<path d="M4945 4200 c-3 -5 1 -10 9 -10 9 0 16 -5 16 -12 0 -6 2 -9 5 -6 7 7
-5 38 -15 38 -5 0 -12 -4 -15 -10z"/>
<path d="M4885 4180 c-3 -5 1 -10 9 -10 8 0 18 5 21 10 3 6 -1 10 -9 10 -8 0
-18 -4 -21 -10z"/>
<path d="M5630 6999 c0 -5 5 -7 10 -4 6 3 10 8 10 11 0 2 -4 4 -10 4 -5 0 -10
-5 -10 -11z"/>
<path d="M7069 5973 c-9 -2 -23 -19 -32 -38 -16 -33 -16 -35 4 -46 15 -8 19
-8 15 0 -4 6 -2 11 3 11 6 0 11 6 11 14 0 8 13 23 29 32 43 26 25 42 -30 27z"/>
<path d="M7340 5955 c-7 -9 -10 -18 -7 -22 8 -7 37 15 37 28 0 14 -16 11 -30
-6z"/>
<path d="M4070 6734 c0 -8 5 -12 10 -9 6 4 8 11 5 16 -9 14 -15 11 -15 -7z"/>
<path d="M3466 6572 c-3 -5 1 -9 9 -9 8 0 12 4 9 9 -3 4 -7 8 -9 8 -2 0 -6 -4
-9 -8z"/>
<path d="M2887 6144 c-4 -4 -7 -14 -7 -23 0 -11 3 -12 11 -4 6 6 10 16 7 23
-2 6 -7 8 -11 4z"/>
<path d="M2881 6084 c0 -11 3 -14 6 -6 3 7 2 16 -1 19 -3 4 -6 -2 -5 -13z"/>
<path d="M3170 5779 c-1 -19 43 -89 52 -83 7 5 6 11 -5 19 -9 7 -15 14 -13 16
3 2 -4 15 -14 29 -11 14 -20 22 -20 19z"/>
<path d="M3232 5656 c2 -16 9 -31 17 -34 10 -3 11 2 6 19 -12 39 -27 48 -23
15z"/>
<path d="M2926 5615 c35 -85 76 -141 94 -130 18 11 11 27 -35 76 -25 26 -45
55 -45 63 0 7 -6 16 -14 19 -13 5 -13 1 0 -28z"/>
<path d="M6596 4008 c4 -6 -1 -17 -11 -25 -16 -11 -17 -15 -5 -26 7 -6 10 -7
7 -1 -4 6 5 16 18 22 14 7 25 16 25 22 0 6 -4 8 -10 5 -5 -3 -10 -1 -10 4 0 6
-5 11 -11 11 -5 0 -7 -5 -3 -12z"/>
<path d="M6570 3930 c-9 -6 -10 -10 -3 -10 6 0 15 5 18 10 8 12 4 12 -15 0z"/>
<path d="M6147 3546 c-4 -10 -1 -13 8 -9 8 3 12 9 9 14 -7 12 -11 11 -17 -5z"/>
<path d="M4165 3490 c4 -7 1 -16 -6 -21 -11 -7 -10 -9 4 -9 10 0 15 -4 12 -10
-3 -5 -1 -10 4 -10 6 0 11 5 11 10 0 6 10 10 23 10 16 0 18 3 9 9 -8 4 -13 12
-13 17 1 5 -10 10 -25 12 -18 3 -24 0 -19 -8z"/>
<path d="M6006 3443 c-6 -14 -5 -15 5 -6 7 7 10 15 7 18 -3 3 -9 -2 -12 -12z"/>
<path d="M4226 3417 c3 -10 9 -15 12 -12 3 3 0 11 -7 18 -10 9 -11 8 -5 -6z"/>
<path d="M6046 3415 c-3 -9 0 -15 9 -15 9 0 12 6 9 15 -4 8 -7 15 -9 15 -2 0
-5 -7 -9 -15z"/>
<path d="M4270 3410 c-8 -5 -12 -12 -9 -15 4 -3 12 1 19 10 14 17 11 19 -10 5z"/>
<path d="M4240 3378 c0 -2 9 -11 19 -20 18 -15 20 -15 26 0 3 9 3 13 -1 10 -4
-4 -15 -3 -25 3 -11 5 -19 8 -19 7z"/>
<path d="M5990 3305 c-10 -12 -10 -18 0 -29 12 -15 44 -11 35 5 -3 4 -12 6
-20 2 -18 -6 -20 8 -3 25 7 7 9 12 6 12 -3 0 -11 -7 -18 -15z"/>
<path d="M4381 3254 c0 -11 3 -14 6 -6 3 7 2 16 -1 19 -3 4 -6 -2 -5 -13z"/>
<path d="M4160 3252 c0 -7 -11 -12 -25 -12 -18 0 -23 -4 -19 -15 4 -8 16 -15
28 -14 20 0 20 1 1 9 -16 7 -17 9 -3 9 18 1 34 19 24 28 -3 4 -6 1 -6 -5z"/>
<path d="M4392 3225 c4 -4 2 -15 -4 -23 -10 -11 -9 -16 5 -24 10 -5 15 -13 12
-18 -3 -4 4 -6 15 -3 19 5 19 7 5 23 -8 9 -15 22 -15 28 0 6 -6 14 -12 18 -7
4 -10 4 -6 -1z"/>
<path d="M4165 3199 c-4 -6 -5 -12 -2 -15 2 -3 7 2 10 11 7 17 1 20 -8 4z"/>
<path d="M4123 3145 c13 -28 24 -32 24 -10 0 8 -4 15 -9 15 -5 0 -6 5 -3 10 3
6 0 10 -8 10 -13 0 -13 -4 -4 -25z"/>
<path d="M6005 3150 c-3 -5 -1 -10 4 -10 6 0 11 5 11 10 0 6 -2 10 -4 10 -3 0
-8 -4 -11 -10z"/>
<path d="M4207 3114 c-8 -8 3 -34 15 -34 7 0 6 5 -1 13 -6 8 -8 17 -4 20 3 4
4 7 1 7 -2 0 -7 -3 -11 -6z"/>
<path d="M4125 3050 c3 -5 8 -10 11 -10 2 0 4 5 4 10 0 6 -5 10 -11 10 -5 0
-7 -4 -4 -10z"/>
<path d="M5935 3010 c-3 -6 1 -7 9 -4 18 7 21 14 7 14 -6 0 -13 -4 -16 -10z"/>
<path d="M4486 2993 c-6 -14 -5 -15 5 -6 7 7 10 15 7 18 -3 3 -9 -2 -12 -12z"/>
<path d="M5917 2983 c4 -25 1 -32 -13 -36 -13 -3 -11 -5 8 -6 21 -1 26 3 21
15 -3 9 0 20 8 25 11 7 11 9 -3 9 -9 0 -19 6 -21 13 -3 6 -3 -2 0 -20z"/>
<path d="M4512 2988 c-17 -17 36 -52 55 -36 10 8 8 14 -11 29 -28 22 -29 22
-44 7z m48 -28 c0 -6 -9 -2 -20 7 -11 10 -20 19 -20 21 0 1 9 -2 20 -8 11 -6
20 -15 20 -20z"/>
<path d="M4495 2940 c4 -6 11 -8 16 -5 14 9 11 15 -7 15 -8 0 -12 -5 -9 -10z"/>
<path d="M4585 2820 c3 -5 8 -10 11 -10 2 0 4 5 4 10 0 6 -5 10 -11 10 -5 0
-7 -4 -4 -10z"/>
<path d="M5628 2793 c7 -3 16 -2 19 1 4 3 -2 6 -13 5 -11 0 -14 -3 -6 -6z"/>
<path d="M4150 2719 c0 -5 5 -7 10 -4 6 3 10 8 10 11 0 2 -4 4 -10 4 -5 0 -10
-5 -10 -11z"/>
<path d="M5549 2659 c14 -5 32 -15 40 -22 12 -10 12 -9 2 8 -7 12 -25 21 -40
22 l-26 2 24 -10z"/>
<path d="M4130 2650 c-9 -6 -10 -10 -3 -10 6 0 15 5 18 10 8 12 4 12 -15 0z"/>
<path d="M4570 2621 c0 -5 7 -11 15 -15 9 -3 15 0 15 9 0 8 -7 15 -15 15 -8 0
-15 -4 -15 -9z"/>
<path d="M4220 2600 c0 -5 5 -10 11 -10 5 0 7 5 4 10 -3 6 -8 10 -11 10 -2 0
-4 -4 -4 -10z"/>
<path d="M4155 2570 c-3 -5 1 -10 10 -10 9 0 13 5 10 10 -3 6 -8 10 -10 10 -2
0 -7 -4 -10 -10z"/>
<path d="M5460 2550 c0 -6 7 -10 15 -10 8 0 15 2 15 4 0 2 -7 6 -15 10 -8 3
-15 1 -15 -4z"/>
<path d="M5538 2533 c6 -2 18 -2 25 0 6 3 1 5 -13 5 -14 0 -19 -2 -12 -5z"/>
<path d="M5586 2498 c5 -17 3 -20 -12 -14 -14 5 -16 4 -8 -4 12 -12 48 -1 51
16 1 7 -7 14 -18 17 -16 4 -19 2 -13 -15z"/>
<path d="M4730 2499 c0 -5 -5 -7 -12 -3 -7 4 -8 3 -4 -5 6 -9 11 -9 22 0 17
14 18 19 4 19 -5 0 -10 -5 -10 -11z"/>
<path d="M5535 2480 c3 -5 8 -10 11 -10 2 0 4 5 4 10 0 6 -5 10 -11 10 -5 0
-7 -4 -4 -10z"/>
<path d="M5620 2470 c-13 -8 -12 -10 3 -10 9 0 17 5 17 10 0 12 -1 12 -20 0z"/>
<path d="M5520 2461 c0 -6 4 -13 10 -16 6 -3 7 1 4 9 -7 18 -14 21 -14 7z"/>
<path d="M5455 2450 c4 -6 11 -8 16 -5 14 9 11 15 -7 15 -8 0 -12 -5 -9 -10z"/>
<path d="M5620 2441 c0 -6 5 -13 10 -16 6 -3 10 1 10 9 0 9 -4 16 -10 16 -5 0
-10 -4 -10 -9z"/>
<path d="M5504 2418 c-3 -4 0 -8 7 -8 7 0 9 -3 6 -6 -4 -4 -13 -1 -21 5 -8 7
-17 8 -20 3 -8 -13 4 -22 31 -22 27 0 29 -8 6 -26 -10 -7 -14 -16 -10 -21 5
-4 15 1 22 12 8 11 19 26 25 33 8 9 6 12 -7 13 -12 1 -10 3 7 8 24 7 24 8 -8
13 -18 2 -35 1 -38 -4z"/>
<path d="M5581 2403 c0 -16 3 -22 6 -16 3 10 10 10 24 2 11 -6 25 -8 32 -5 7
2 4 5 -5 5 -10 1 -27 10 -38 21 l-20 20 1 -27z"/>
<path d="M3930 2416 c0 -2 7 -6 15 -10 8 -3 15 -1 15 4 0 6 -7 10 -15 10 -8 0
-15 -2 -15 -4z"/>
<path d="M4800 2350 c0 -5 5 -10 11 -10 5 0 7 5 4 10 -3 6 -8 10 -11 10 -2 0
-4 -4 -4 -10z"/>
<path d="M4995 2280 c-3 -5 -15 -10 -25 -10 -10 0 -21 -6 -23 -12 -4 -10 -6
-10 -6 0 -1 14 -41 17 -41 2 0 -12 45 -24 59 -15 6 3 11 2 11 -4 0 -5 -6 -12
-12 -14 -10 -4 -10 -6 0 -6 8 -1 16 8 19 19 5 18 15 24 35 21 4 0 5 6 2 14 -7
18 -11 19 -19 5z"/>
<path d="M5115 2240 c-16 -7 -17 -9 -3 -9 9 -1 20 4 23 9 7 11 7 11 -20 0z"/>
<path d="M5015 2230 c3 -5 8 -10 11 -10 2 0 4 5 4 10 0 6 -5 10 -11 10 -5 0
-7 -4 -4 -10z"/>
</g>
</svg>
